/* XPM */
static char *xpm__usr_share_pixmaps_xhexagons_m[] = {
/* columns rows colors chars-per-pixel */
"32 32 6 1 ",
"  c black",
". c gray39",
"X c #84843C3C2424",
"o c #808080808080",
"O c gray",
"+ c None",
/* pixels */
"++++++++++++++++++++++++++++++++",
"++++++++++++++++++++++++++++++++",
"++++++oooooooooooooooooooo++++++",
"++++++o..  ....  ....  ..o++++++",
"+++++o.. OO .. OO .. OO ..o+++++",
"+++++o. OOXO  OXXO  OXXO .o+++++",
"++++o.. OOXO  OXXO  OXXO ..o++++",
"++++o... OO    OO    OO ...o++++",
"+++o..                    ..o+++",
"+++o. OO    OO    OO    OO .o+++",
"++o. OOXO  OXXO  OXXO  OXXO .o++",
"++o. OXXO  OXXO  OXXO  OOXO .o++",
"+o.   OO    OO    OO    OO ...o+",
"+o.                          .o+",
"o. OO    OO    OO    OO    OO .o",
"o OXXO  OXXO  OXXX  OXOX  OXXX o",
"o OXXO  OOXO  OXXX  OXOX  OXXX o",
"o. OO    OO    OO    OO    OO .o",
"+o.                          .o+",
"+o... OO    OO    OO    OO ...o+",
"++o. OXXX  OXOX  OXXX  OXXX .o++",
"++o. OXXX  OXXX  OXXX  OXXX .o++",
"+++o. OO    OO    OO .. OO .o+++",
"+++o..        ....  ....  ..o+++",
"++++o... OO  ..............o++++",
"++++o.. OXXX ..............o++++",
"+++++o. OXOX ............oo+++++",
"+++++o.  OO .............oo+++++",
"++++++o..  ..............o++++++",
"++++++oooooooooooooooooooo++++++",
"++++++++++++++++++++++++++++++++",
"++++++++++++++++++++++++++++++++"
};
