/* XPM */
static char *xpm__usr_share_pixmaps_xtriangles_m[] = {
/* columns rows colors chars-per-pixel */
"32 32 6 1 ",
"  c black",
". c gray39",
"X c #84843C3C2424",
"o c #808080808080",
"O c gray",
"+ c None",
/* pixels */
"++++++++++++++++++++++++++++++++",
"+++++++++++++++oo+++++++++++++++",
"++++++++++++++oOOo++++++++++++++",
"++++++++++++++oOOo++++++++++++++",
"+++++++++++++oOOOOo+++++++++++++",
"+++++++++++++oOOXOo+++++++++++++",
"++++++++++++oOOOXOOo++++++++++++",
"++++++++++++oOOOXOOo++++++++++++",
"+++++++++++oOOOOXOOOo+++++++++++",
"+++++++++++oOOOOXOOOo+++++++++++",
"++++++++++oOOOOOOOOOOo++++++++++",
"++++++++++o          o++++++++++",
"+++++++++oO OOOOOOOO Oo+++++++++",
"+++++++++oO OOOXXOOO Oo+++++++++",
"++++++++oOOO OOOXOO OOOo++++++++",
"++++++++oOXX OOXXOO OOXo++++++++",
"+++++++oOOOXO OOXO OOXXOo+++++++",
"+++++++oOOOXO OXXO OXOXOo+++++++",
"++++++oOOOXOOO OO OOXXXXOo++++++",
"++++++oOOOXXOO OO OOOOXOOo++++++",
"+++++oOOOOOOOOO  OOOOOOOOOo+++++",
"+++++o                    o+++++",
"++++oO OOOOOOO OO .........o++++",
"++++oO OOOXOOO OO .........o++++",
"+++oOOO OXOOO OOOO .........o+++",
"+++oOXX OXXOO OXXX .........o+++",
"++oOOXOO XOX  OOOXO .........o++",
"++oOOOXO OXO OOOOXO .........o++",
"+oOOOOXOO O OOOOXOOO .........o+",
"+oOOOXXOO O OOOOXOOO .........o+",
"oOOOOOOOOO OOOOOOOOOO .........o",
"oooooooooooooooooooooooooooooooo"
};
