/* XPM */
static char *balsa[] = {
/* columns rows colors chars-per-pixel */
"32 32 69 1 ",
"  c #656564646060",
". c #6E6E6D6D6868",
"X c #70706F6F6C6C",
"o c #717170706D6D",
"O c #757574747171",
"+ c #797978787373",
"@ c #7C7C7A7A7777",
"# c #818180807A7A",
"$ c #818180807C7C",
"% c #848483837E7E",
"& c #858584848080",
"* c #888886868181",
"= c #8B8B8A8A8585",
"- c #90908F8F8B8B",
"; c #929291918B8B",
": c #979796968F8F",
"> c #969695959090",
", c #9A9A99999797",
"< c #9C9C9A9A9696",
"1 c #9E9E9C9C9696",
"2 c #A0A09F9F9A9A",
"3 c #9E9EA5A59E9E",
"4 c #A2A2A1A19A9A",
"5 c #A7A7A6A6A0A0",
"6 c #A8A8A6A6A1A1",
"7 c #A3A3A9A9A3A3",
"8 c #ACACACACA5A5",
"9 c #ABABB1B1ABAB",
"0 c #AEAEB4B4AEAE",
"q c #B0B0B6B6B0B0",
"w c #B6B6B6B6B6B6",
"e c #B7B7BCBCB7B7",
"r c #BBBBBBBBBBBB",
"t c gray74",
"y c #BCBCC2C2BCBC",
"u c gray76",
"i c #C5C5C5C5C5C5",
"p c #C8C8C8C8C8C8",
"a c #CBCBCECECBCB",
"s c gray80",
"d c gray81",
"f c #CCCCD0D0CCCC",
"g c LightGray",
"h c gray83",
"j c #D7D7D7D7D7D7",
"k c #D7D7DADAD7D7",
"l c #D8D8D8D8D8D8",
"z c gray86",
"x c gainsboro",
"c c #DEDEE0E0DEDE",
"v c gray88",
"b c #E2E2E3E3E2E2",
"n c gray89",
"m c #E4E4E4E4E4E4",
"M c #E7E7E9E9E7E7",
"N c gray91",
"B c gray92",
"V c #EAEAECECEAEA",
"C c #EEEEEEEEEEEE",
"Z c #EFEFF0F0EFEF",
"A c gray94",
"S c #F1F1F1F1F1F1",
"D c #F3F3F4F4F3F3",
"F c #F5F5F4F4F4F4",
"G c gray96",
"H c #F8F8F8F8F8F8",
"J c gray98",
"K c gray99",
"L c None",
/* pixels */
"LLLLLLLLLLLLLLLLLLLLLLLLLLLLLLLL",
"LLLLLLLLLLLL-==&&&%%LLLLLLLLLLLL",
"LLLLLLLLLLL:SKKKJJJS-LLLLLLLLLLL",
"LLLLLLLLLL4JGZZNNCmSJ<LLLLLLLLLL",
"LLLLLLLLL6KSCNNnmmbbbJ<LLLLLLLLL",
"LLLLLLLL8KSCnNmnmxzzxnG,LLLLLLLL",
"LLLLLLL8KAMMNnbbcxxjljbS>LLLLLLL",
"LLLLLL5JSnbnnnxzxxxxlggxC&LLLLLL",
"LLLLL4JSmmbbxvzzjzjgjjpaxm@LLLLL",
"LLLL4GSmmmczzzzkggggpstwimz+LLLL",
"LLL2mGmbbzxxzlhhjppwimJJtpmpOLLL",
"LLL1JbbxxzjzlhsruxGKKJJJCusCoLLL",
"LLL1KbxzxjjurgCKKJJJGGGGJtpCoLLL",
"LLL1KcxstsmJKKJHJGGSSGGSSmjSoLLL",
"LLL1KGfGJKJJGGGSSSSSSCCCCgCCoLLL",
"LLL1KGSaGGGGGSSACCCCCCNCibNCoLLL",
"LLL<KSSVeSSSSSCCCNCmNNmuxmNCXLLL",
"LLL1KSZSbqNbNmBbNCnCMnpzNNMVXLLL",
"LLL1KSCCCl9zxxzzxxxxxupNNNnCoLLL",
"LLL,KSCSCCp0u33333337rNMmNnVoLLL",
"LLL<KSVNNNC00SKDSNnzi8znmmmNoLLL",
"LLL<KVMCCbyaGCmCCmMnnz0zbmmCXLLL",
"LLL1JNSNbuNSVmNbmnnMmnzyzbbNoLLL",
"LLL1KMnxsFNCmmmmnnnnmmxmugmN.LLL",
"LLL<JmxMSmmSbbmbmbbbzbmmnkzN.LLL",
"LLL1GnGVmbmmbbmmxbxmmmzmzbzm.LLL",
"LLL<JGGSSSSSCSZNCSVNCNSNCCmS.LLL",
"LLL::::;-;==&*%%###+++OOO.oo LLL",
"LLLLLLLLLLLLLLLLLLLLLLLLLLLLLLLL",
"LLLLLLLLLLLLLLLLLLLLLLLLLLLLLLLL",
"LLLLLLLLLLLLLLLLLLLLLLLLLLLLLLLL",
"LLLLLLLLLLLLLLLLLLLLLLLLLLLLLLLL"
};
