/* XPM */
static char *ffanvil32[] = {
/* columns rows colors chars-per-pixel */
"32 32 49 1 ",
"  c #0C0C0C0C0C0C",
". c gray7",
"X c #161616161616",
"o c gray10",
"O c gray11",
"+ c gray13",
"@ c #272727272727",
"# c gray17",
"$ c #2C2C2C2C2C2C",
"% c gray20",
"& c gray21",
"* c #393939393939",
"= c #3C3C3C3C3C3C",
"- c gray26",
"; c gray28",
": c gray29",
"> c gray31",
", c #535353535353",
"< c #565656565656",
"1 c #585858585858",
"2 c #5D5D5D5D5D5D",
"3 c #606060606060",
"4 c gray40",
"5 c #6D6D6D6D6D6D",
"6 c #727272727272",
"7 c #7C7C7C7C7C7C",
"8 c gray51",
"9 c #868686868686",
"0 c #8B8B8B8B8B8B",
"q c gray56",
"w c #979797979797",
"e c #9B9B9B9B9B9B",
"r c #9F9F9F9F9F9F",
"t c #A5A5A5A5A5A5",
"y c gray67",
"u c #ACACACACACAC",
"i c gray70",
"p c #B6B6B6B6B6B6",
"a c #BBBBBBBBBBBB",
"s c gray",
"d c #C1C1C1C1C1C1",
"f c #C5C5C5C5C5C5",
"g c gray79",
"h c gray81",
"j c LightGray",
"k c gray83",
"l c #D8D8D8D8D8D8",
"z c gray100",
"x c None",
/* pixels */
"xxxxxxxxxxxxxxxxxxxxxxxxxxxxxxxx",
"xxxxxxxxxxxxxxxxxxxxxxxxxxxxxxxx",
"xxxxxxxxxxxxxxxxxxxxxxxxxxxxxxxx",
"xxxxxxs >xxxxxxxxxxxxxxxxxxxxxxx",
"xxxxxs   >xxxxxxxxxxxxxxxxxxxxxx",
"xxxxx     >xxxxxxxxxxxxxxxxxxxxx",
"xxxxx>     >xxxxxxxxxxxxxxxxxxxx",
"xxxxs       xxxxxxxxxxxxxxxxxxxx",
"xxs        sxxxxxxxxxxxxxxxxxxxx",
"s     xx> sxxxxxxxxxxxxxxxxxxxxx",
"   >xxxxxxxxxxxxxxxxxxxxxxxxxxxx",
" >xxxxxxxxxxxxxxxxxkyrijxxxxxxxx",
"xxxxxxxxxxxxxxxly71<,,,,<8axxxxx",
"xxxxxxxxxxxxs0,zz,zz,,,,,,,1qhxx",
"xxxxxxxxxp7<,,z,,z,,z<,,,,,,,,3x",
"xxxxxxg9<,,zzzzzzzz,,,,,,,,>=@.a",
"xxxxu4,,,,,,z<,z,1<,,,,,:&+   :x",
"xxt2<,,,,,,z,<z,3,,,,-$o    ;yxx",
"e;-;>>,,,zzzzzzzz*#O     O7xxxxx",
"2X    ..XXoXX.         oqxxxxxxx",
"xxu3o                 &xxxxxxxxx",
"xxxxxp4O          .O#&9fxxxxxxxx",
"xxxxxxxx9XX...o+@%*=*=**>xxxxxxx",
"xxxxxxx4+@+@+%***==*=**=*3xxxxxx",
"xxxxxx6#@+@+#*==**&$###@##xxxxxx",
"xxxxxx&XO++@&**$#@+++@+@+>xxxxxx",
"xxxxxx4ooo+#&#@++@+@+@@+,xxxxxxx",
"xxxxxxxr+oX@@++@@+@+@#5fxxxxxxxx",
"xxxxxxxxx6O++@+@$:4qdxxxxxxxxxxx",
"xxxxxxxxxxxwufxxxxxxxxxxxxxxxxxx",
"xxxxxxxxxxxxxxxxxxxxxxxxxxxxxxxx",
"xxxxxxxxxxxxxxxxxxxxxxxxxxxxxxxx"
};
