/* XPM */
static char *frama_c[] = {
/* columns rows colors chars-per-pixel */
"32 32 40 1 ",
"  c #D1D143431E1E",
". c #D6D645451E1E",
"X c #EFEF41411414",
"o c #EFEF45451818",
"O c #EFEF4A4A1F1F",
"+ c #F0F047471C1C",
"@ c #DBDB46462020",
"# c #DFDF47472020",
"$ c #E0E048482121",
"% c #EBEB4B4B2222",
"& c #EEEE4C4C2222",
"* c #F1F14D4D2323",
"= c #F2F24D4D2323",
"- c #F0F04E4E2424",
"; c #F0F050502727",
": c #F1F157572F2F",
"> c #F1F15A5A3333",
", c #F1F15E5E3838",
"< c #F1F160603A3A",
"1 c #F2F265654141",
"2 c #F2F271715050",
"3 c #F4F47B7B5C5C",
"4 c #F4F482826464",
"5 c #F5F58A8A6E6E",
"6 c #F5F590907676",
"7 c #F6F6A0A08A8A",
"8 c #F7F7A4A48F8F",
"9 c #F9F9B3B3A2A2",
"0 c #F9F9B8B8A8A8",
"q c #FBFBCBCBBEBE",
"w c #FCFCDADAD1D1",
"e c #FCFCDCDCD5D5",
"r c #FCFCE1E1D9D9",
"t c #FEFEEEEEEAEA",
"y c #FEFEF1F1EEEE",
"u c #FEFEF4F4F2F2",
"i c #FEFEF6F6F4F4",
"p c #FEFEFBFBFAFA",
"a c gray100",
"s c None",
/* pixels */
"sss@$$$$$$$$$$O$$O@@$$$*O.$$O ss",
"s.%**********;**&*&:*&-;&***&&#s",
"s%*&*-*****-****--&&*&**&-&&*&&$",
"@*&**&**-&*&****&&&-**&&&---&*-&",
"#**-&*&-**&**--&--**&***-&-&-&&-",
"$**&-***-&-*&&-&O+&X+&&*********",
"$;***-&-***--&&<8qeeq-&**&-*-&*&",
"O*-&*&**-&*&**2yappir-&**-&****-",
"#-&;;O;O;O;O*;qar7554;&**&-****&",
"#&&-O;O;O;;*&>aa6Oo++&*&*-&*&-*-",
"$*-*;O;O**OOO<au4oOO&*******-&*&",
"$**&O;O;***:>2au5:>>;&&*&-&-***-",
"$;*&;*;O**X0ppaapppi3O**-&-&***&",
"O**&&*O;**X9yyaaiyyy3O*&****&-*-",
".******O**&O+<au3XoO&*-&*&-*-&*&",
"$;***&&;**;O&<au3O&&&****-&****-",
"$-*-*--&---&&1au4O**O;O**;O;O**;",
"$**-*-&*--&*&1au4**&;O;O;O;O;O;O",
"$*-&***&**&&*1au3O*&O;O;O;O;**O;",
"$*&*&***&*&*O1au4O*&;O;O;O**;O;O",
"$***-&-**&--&1au4&*&**O;O;O;O;O;",
"$***&*-*&-**&1au4+*&;&;O*O;O;O*O",
"$****&*--&**O1au4O**O;O;*;*;O;*;",
"$******-&*&*O1au3&--;O;O;O*O;O;O",
"$*;***&****&-1au4O&*&**-O;O**;O;",
"$***&*&*--&*-1au3******-;O;O;O;O",
"$***&*;**&*-*,tw3***&*&-O;O;O;O*",
"$*****&*&**-*&XXO*---&*&**;O;O;*",
"O******&***&*-*&**&******&*&O*O;",
" ;O*&;**--&**-&*O&**--*&&*&*;O*O",
"s.;*O*&**&*-*&**&*&&&-&*--*****s",
"ss.&*;&*&**-&*---&&**&***-****ss"
};
