/* XPM */
static char *gdm[] = {
/* columns rows colors chars-per-pixel */
"32 32 56 1 ",
"  c gray28",
". c #565656565656",
"X c #585858585858",
"o c #6C6C6C6C6C6C",
"O c #747474747474",
"+ c #88888A8A8585",
"@ c gray54",
"# c #8B8B8D8D8888",
"$ c #919193938F8F",
"% c #929292929292",
"& c #979797979797",
"* c #9D9D9D9D9D9D",
"= c #B2B2B3B3B0B0",
"- c #B3B3B5B5B1B1",
"; c #B5B5B6B6B3B3",
": c #B7B7B8B8B5B5",
"> c #B9B9BABAB7B7",
", c #BBBBBCBCB9B9",
"< c #BCBCBDBDBABA",
"1 c #BEBEBFBFBCBC",
"2 c #BFBFC0C0BDBD",
"3 c #C2C2C3C3C0C0",
"4 c #C7C7C8C8C4C4",
"5 c #CACACCCCC8C8",
"6 c #CFCFCFCFCCCC",
"7 c #CFCFD1D1CCCC",
"8 c #D2D2D3D3CFCF",
"9 c #D2D2D4D4CFCF",
"0 c #D3D3D5D5D0D0",
"q c #D5D5D7D7D2D2",
"w c #D6D6D7D7D5D5",
"e c #D7D7D8D8D4D4",
"r c #DADADBDBD7D7",
"t c #DBDBDCDCD9D9",
"y c #DCDCDCDCD9D9",
"u c #DCDCDEDEDADA",
"i c #DFDFDFDFDCDC",
"p c #DEDEE0E0DCDC",
"a c #E0E0E1E1DEDE",
"s c #E2E2E3E3E0E0",
"d c #E3E3E3E3E2E2",
"f c #E3E3E4E4E1E1",
"g c #E5E5E6E6E3E3",
"h c #E7E7E7E7E5E5",
"j c #E7E7E9E9E6E6",
"k c #E9E9E9E9E7E7",
"l c #E9E9EAEAE8E8",
"z c #EBEBECECE9E9",
"x c #ECECECECEAEA",
"c c #EDEDEEEEECEC",
"v c #F0F0F0F0EFEF",
"b c #F1F1F2F2F1F1",
"n c #F7F7F7F7F6F6",
"m c #FBFBFBFBFAFA",
"M c gray100",
"N c None",
/* pixels */
"NNNNNNNNNNNNNNNNNNNNNNNNNNNNNNNN",
"NNNNNNNNNNNNNNNNNNNNNNNNNNNNNNNN",
"NNNNNNNNNNNNNNNNNNNNNNNNNNNNNNNN",
"NNNNNNNNNNNNNNNNNNNNNNNNNNNNNNNN",
"NN#++++++++++++++++++++++++++#NN",
"N#7jklzllxxxxxxxxxxlzzllkkjkh5#N",
"N+krrrttuuuiupauiuiiuutrreqeqj+N",
"N+zrtuppaaaaaspissppppiittuewl+N",
"N+xuppasaphsssshgsgafaaappuurl+N",
"N+caapfshggghhhhggggggaappputl+N",
"N+csffgggjhkllllkhkjggffgsppux+N",
"N+cfgggjkkkkllllxlkkkjhgsffppl+N",
"N+vgjjkksssshsghxxxxxxkkggfueh+N",
"N+vghjlzzxccccccvcccllkkjfteql+N",
"N+bkkkxxw2211<,,>:>;-=6kaurrwj+N",
"N+bkkzxc3mMMMMMMMMMMMm$auurrek+N",
"N+bklxxx3M**M&&M%@MX M+auurrqk+N",
"N+kraskh,m%@MOoM. M  n+auurrql+N",
"N+kwtrru;+++++++++++++;aiuuyrk+N",
"N+gqqrruuaaaggjkgkgggaaaiuyyrk+N",
"N+kqqrrruuaaaggggggsaaauuyrrqk+N",
"N+h9qqrruuuaaaaagagaaauutreqqh+N",
"N+g88qqrruuuuaaaaaaiiuuurqrqqh+N",
"N+g88qqqqruuuuuuuuuuuuurteq98h+N",
"N+s8888qeqttrrrttrtrrrrwqqq88h+N",
"N+s887q99qqqrqwrteteqqqqq8808a+N",
"N+4ggagghhjjhkkkjjkkkhkhhghag4+N",
"NN++++++++++++++++++++++++++++NN",
"NNNNNNNNNNNNNNNNNNNNNNNNNNNNNNNN",
"NNNNNNNNNNNNNNNNNNNNNNNNNNNNNNNN",
"NNNNNNNNNNNNNNNNNNNNNNNNNNNNNNNN",
"NNNNNNNNNNNNNNNNNNNNNNNNNNNNNNNN"
};
