/* XPM */
static char *neverball[] = {
/* columns rows colors chars-per-pixel */
"32 32 63 1 ",
"  c #060606060606",
". c #0B0B0B0B0B0B",
"X c gray6",
"o c gray7",
"O c #151515151515",
"+ c #181818181818",
"@ c gray11",
"# c #222222222222",
"$ c gray15",
"% c #282828282828",
"& c #2F2F2F2F2F2F",
"* c gray19",
"= c #343434343434",
"- c gray22",
"; c gray24",
": c #414141414141",
"> c gray28",
", c gray29",
"< c #4E4E4E4E4E4E",
"1 c #535353535353",
"2 c #565656565656",
"3 c #5B5B5B5B5B5B",
"4 c #5F5F5F5F5F5F",
"5 c #606060606060",
"6 c #646464646464",
"7 c gray42",
"8 c #6F6F6F6F6F6F",
"9 c #717171717171",
"0 c #767676767676",
"q c gray48",
"w c #7C7C7C7C7C7C",
"e c gray51",
"r c #868686868686",
"t c #898989898989",
"y c gray56",
"u c gray57",
"i c #959595959595",
"p c #9A9A9A9A9A9A",
"a c gray62",
"s c gray63",
"d c #A7A7A7A7A7A7",
"f c gray67",
"g c gray68",
"h c #B4B4B4B4B4B4",
"j c gray72",
"k c gray",
"l c #C1C1C1C1C1C1",
"z c gray78",
"x c gray79",
"c c gray81",
"v c gray82",
"b c gray83",
"n c #D8D8D8D8D8D8",
"m c #DDDDDDDDDDDD",
"M c gray89",
"N c #E6E6E6E6E6E6",
"B c gray92",
"V c gray93",
"C c #F3F3F3F3F3F3",
"Z c #F4F4F4F4F4F4",
"A c #F8F8F8F8F8F8",
"S c gray99",
"D c None",
/* pixels */
"DDDDDDDDDDDDD$%$   DDDDDDDDDDDDD",
"DDDDDDDDDD&;><2<ooX.  DDDDDDDDDD",
"DDDDDDDD*>16rdjzdi9,@oX DDDDDDDD",
"DDDDDD%:17ikvmNVMblgi3@o. DDDDDD",
"DDDDD&>30dkcnNCACmchst7%OX DDDDD",
"DDDD*,50sjxbMBCCMbxhsy02$+o DDDD",
"DDD&>40uglvnNBVCxzjfpt04-$+X DDD",
"DDD:40tsjxnMNBCVhgfpyw83;&$O.DDD",
"DD-28rpglvmNVZCVpiurw95<-=&@O DD",
"D%,6wifjxnMBZZZVwq09741>;-*%@X D",
"D=29tshzbmBZZSZB5422<,:::;=*#O D",
"D>5wifkzhpgnBj52SACmzfy5>;-*$+.D",
"&,7ryq5>:,evNh2-SSSSSSCNvs8;%@o ",
"*12:=;:::;3phr**SSSSSSZVMckd9=o ",
"#@#&-;:::;=,>%O%SSSSSSAVMvlfuq,O",
" O#*-:>:;==%#OO$SSSSSSAVNvzgiq3&",
" O$&-;::;--**%$=SSSSSSAVNvlgiq4&",
" o#&-;>:>>>:;-=>SSSSSSACMvkfuq4$",
" o#&-;:,<<1<<<,3SSSSSSZVmvkgy92$",
" X@&=;><23454448SSSSSACNnxhsr81O",
"D.+%*:,24688899eSSSSSZBmvlgie5>D",
"D O$*:<3589qeeeuSSSZZVNbxjdy03&D",
"D X@&;<379wrtuuaSAZCVMnckgpe6<+D",
"DD.+&-<460wtuipdCVVBMbckhat93*DD",
"DD o$=,260wyuaafNMNnvxkhayq5>ODD",
"DDDX+&;148wtupsdbvvxlhgayq6<#DDD",
"DDDDo$=>269etipsllhjhfptq6<&DDDD",
"DDDDDO%-,370etupgggsuye94<%DDDDD",
"DDDDDDO%-,269wetiiute063>$DDDDDD",
"DDDDDDDO$=:14689wq9863<=+DDDDDDD",
"DDDDDDDDD@%=:<24433<,*@DDDDDDDDD",
"DDDDDDDDDDDD#%****&$DDDDDDDDDDDD"
};
