/* XPM */
static char *nfoview[] = {
/* columns rows colors chars-per-pixel */
"32 32 73 1 ",
"  c #39393D3D3F3F",
". c #3E3E43434242",
"X c #3F3F45454545",
"o c #4D4D51515050",
"O c #57575A5A5656",
"+ c #606062625E5E",
"@ c #646466666262",
"# c #69696B6B6666",
"$ c #6C6C6E6E6969",
"% c #727274747070",
"& c #79797D7D7B7B",
"* c #7D7D7E7E7979",
"= c #7F7F80807C7C",
"- c #818183837E7E",
"; c #838385858383",
": c #868688888686",
"> c #88888A8A8585",
", c #8B8B8C8C8989",
"< c #8D8D8E8E8B8B",
"1 c #8E8E90908C8C",
"2 c #939394949191",
"3 c #959597979292",
"4 c #969698989393",
"5 c #99999B9B9797",
"6 c #9F9FA0A09C9C",
"7 c #A0A0A2A29E9E",
"8 c #A3A3A4A4A0A0",
"9 c #A5A5A6A6A3A3",
"0 c #A9A9AAAAA6A6",
"q c #ADADAFAFAAAA",
"w c #AFAFB0B0ACAC",
"e c #B0B0B1B1AEAE",
"r c #B3B3B4B4B1B1",
"t c #B9B9BBBBB6B6",
"y c #BDBDBDBDBBBB",
"u c #BFBFC3C3BDBD",
"i c #C1C1C4C4BDBD",
"p c #C2C2C3C3C0C0",
"a c #C6C6C8C8C2C2",
"s c #C7C7C8C8C6C6",
"d c #C9C9CACAC6C6",
"f c #CACACBCBCBCB",
"g c #CCCCCDCDCACA",
"h c #CECECECECDCD",
"j c #CDCDD1D1C9C9",
"k c #D0D0D0D0CECE",
"l c #D5D5D6D6D6D6",
"z c #D6D6D8D8D1D1",
"x c #D7D7DBDBD5D5",
"c c #DBDBDEDED7D7",
"v c #D8D8D8D8D8D8",
"b c #DEDEDFDFDBDB",
"n c #DEDEE0E0DCDC",
"m c #E1E1E1E1DFDF",
"M c #E2E2E2E2E0E0",
"N c #E4E4E5E5E2E2",
"B c #E7E7E7E7E6E6",
"V c #E7E7E8E8E5E5",
"C c #EBEBEBEBE8E8",
"Z c #ECECEDEDEBEB",
"A c #EEEEEEEEECEC",
"S c #EFEFF0F0EEEE",
"D c #F0F0F0F0EEEE",
"F c #F3F3F3F3F1F1",
"G c #F4F4F5F5F3F3",
"H c #F5F5F5F5F4F4",
"J c gray97",
"K c #F8F8F8F8F7F7",
"L c #FBFBFBFBFAFA",
"P c #FBFBFBFBFBFB",
"I c #FCFCFCFCFBFB",
"U c gray100",
"Y c None",
/* pixels */
"YYYYYYYYYYYYYYYYYYYYYYYYYYYYYYYY",
"YYYYYYYYYYYYYYYYYYYYYYYYYYYYYYYY",
"YYYY>>>>>>>:>>>>>>>>>>>>>>>>>YYY",
"YYYY>UUUUUUUUUUUUUUUUUUUUUUU>YYY",
"YYYY>UDDFDd9:%-5pDDDDDDDDDDD>YYY",
"YYYY>UDDN5<rijuq*,mSDDDDDDDD>YYY",
"YYYY>UDN>ezmZGABx7$mDSSDADDD>YYY",
"YYYY>UA8qcFLULUHAM6:SZZZAAAD>YYY",
"YYYY>Ug3zDUULULLUAb%yAAAADAD>YYY",
"YYYY>UwtNLLUULULLHCq2AFADDDD>YYY",
"YYYY>U5aZLUUUUULLHAf%FAFDDDD>YYY",
"YYYY>U>jFLLUUULLLLFbOFFFFFFD>YYY",
"YYYY>U5aZILUULLLLLAg%FFFFFFD>YYY",
"YYYY>UetVLIILLLLHHHr2FFFFFFD>YYY",
"YYYY>Uk4zHLILULLHFF%pFHFFFHD>YYY",
"YYYY>UH9eMFKLHLGHL0:HHHHHHHD>YYY",
"YYYY:UZy:wbAHHHFAq#BHUGHHHGA:YYY",
"YYYY:;Oo&51tgnhy-<CHHHHLLHLA:YYY",
"YYYY+#2owAh9,%;5fJHULFLHHHUA>YYY",
"YYYO@2OXvHLHUHLHHHLGHLHLLHGF>YYY",
"YYO@3O.fGHLLLHULLLLHUHLHLHLA>YYY",
"YYO:oolFLLHLLLLHJLLLLLLLLLLH>YYY",
"YYY. nIIULLULLLILLLLKLLLLLLA>YYY",
"YYYY*UKIKLLLIIIILULLLULLLULH>YYY",
"YYYY>UIIIIIIIIIIIIIIIIILULLA:YYY",
"YYYY>UIIIIIIIIIIIIIIIIILLLLF:YYY",
"YYYY>UIIIIIIIIIIIIIIIIULUULA>YYY",
"YYYY>UDDDDDDDDDDDDDDDDDDZZAA>YYY",
"YYYY>>>>>>>>>>>>>>>>>>>>>>>>>YYY",
"YYYYYYYYYYYYYYYYYYYYYYYYYYYYYYYY",
"YYYYYYYYYYYYYYYYYYYYYYYYYYYYYYYY",
"YYYYYYYYYYYYYYYYYYYYYYYYYYYYYYYY"
};
