/* XPM */
static char *nzb[] = {
/* columns rows colors chars-per-pixel */
"32 32 55 1 ",
"  c gray17",
". c gray18",
"X c gray20",
"o c gray21",
"O c #393939393939",
"+ c gray24",
"@ c gray26",
"# c gray28",
"$ c #494949494949",
"% c gray31",
"& c #505050505050",
"* c gray33",
"= c #585858585858",
"- c #5D5D5D5D5D5D",
"; c #606060606060",
": c #676767676767",
"> c #686868686868",
", c #6F6F6F6F6F6F",
"< c #717171717171",
"1 c #747474747474",
"2 c gray48",
"3 c #7E7E7E7E7E7E",
"4 c gray51",
"5 c gray53",
"6 c #898989898989",
"7 c #8E8E8E8E8E8E",
"8 c gray57",
"9 c gray59",
"0 c #9A9A9A9A9A9A",
"q c #9D9D9D9D9D9D",
"w c #A2A2A2A2A2A2",
"e c #A7A7A7A7A7A7",
"r c gray66",
"t c #AFAFAFAFAFAF",
"y c gray69",
"u c #B6B6B6B6B6B6",
"i c #B9B9B9B9B9B9",
"p c gray",
"a c #C3C3C3C3C3C3",
"s c gray77",
"d c #CBCBCBCBCBCB",
"f c #CECECECECECE",
"g c gray82",
"h c gray84",
"j c gray86",
"k c #DFDFDFDFDFDF",
"l c gray89",
"z c gray90",
"x c #EAEAEAEAEAEA",
"c c #ECECECECECEC",
"v c #F3F3F3F3F3F3",
"b c gray97",
"n c gray98",
"m c #FEFEFEFEFEFE",
"M c None",
/* pixels */
"MMMMMMMMMMMMMMMMMMMMMMMMMMMMMMMM",
"MMMMM########################MMM",
"#1wyyyyyttytteyuassssspiiaapr%MM",
"3hjkccccljjkzxxxxzhjhjzxxhhzg;MM",
",gllllllzlzzzzzzzzzzzzzxzzzzz2MM",
":zmzzbmmmmmmmxlzxlmmmmmmmzkzc8MM",
";lbfhhjhjhhjjhhghhjjgddsspppdwMM",
">lmvbvbhiazzhgdjjhsszzzbvbjlvwMM",
">lmjzbmvaruihqir00treirtgmmmmuMM",
">jmjzvmmsgpw33,3*1=pe0paxbvbniMM",
">jbyyyy<<t*oooXooooXo6y:7pppfiMM",
">jm00m>Xfmfmmmmmn&oXopm>X0zmmdXM",
":hno8xoommmmmmml5oX#8mm0o9pildXM",
":ji=96Xommmmmmx9$oo4kmm0X-6$zdoM",
":h0@h0oommmmmme&oo@gmmmvoooo9fOM",
":ho227oXmmmmmkOoo+kmmmmvoXoo@gOM",
":ko5&6oXmmmmx%ooosmmmmmmoovkozOM",
";k7lo;oommmk%Xo$0mmmmmmmoovx6lOM",
":ldf1@Xommz8Xo@5lmmmmmm0o;kpykOM",
"-zk:aooommw%Xo2hmmmmmmm0X64sxl+M",
"-xklktooijooXoooooXoo6l:o=khjj+M",
";vjjklk4yd*ooXXooXooorg7fzzzlc+M",
",chhkllgxkllvvvczxbvzkkvgkjllc+M",
",xlllkzhvzkllzxmclklljcngjjlzv@M",
"2zjkjjkdvhhlkklnzhjkkjcbhjhjgx%M",
"<zjhjkkfxghjjhkvkkkjgjxzghghkx=M",
":jjhhjjpjddgfghkgffgggkhdaaffj&M",
"*ipaaspudassdsdgfdddsdfpsfgffg*M",
"MO$*:,,25788qwewwwqweww9qw9873#M",
"MMMMMMMMMMM................ MMMM",
"MMMMMMMMMMMMMMMMMMMMMMMMMMMMMMMM",
"MMMMMMMMMMMMMMMMMMMMMMMMMMMMMMMM"
};
