/* XPM */
static char *seamonkey_mail_compose[] = {
/* columns rows colors chars-per-pixel */
"32 32 253 2 ",
"   c black",
".  c #060606060303",
"X  c #090907070404",
"o  c #0F0F0D0D0303",
"O  c #1A1A17170B0B",
"+  c #000008081818",
"@  c #080810101818",
"#  c #101010101010",
"$  c #101018181818",
"%  c #1E1E1D1D1D1D",
"&  c #393936360000",
"*  c #101018182424",
"=  c #181821212929",
"-  c #1F1F27272A2A",
";  c #282826262525",
":  c #23232A2A2B2B",
">  c #2E2E2A2A2929",
",  c #28282E2E2929",
"<  c #33332C2C2B2B",
"1  c #32322D2D2C2C",
"2  c #212129293939",
"3  c #353531313030",
"4  c gray21",
"5  c #525216160B0B",
"6  c #6E6E2A2A1212",
"7  c #787829291818",
"8  c #737331311313",
"9  c #73733A3A1616",
"0  c #7B7B31311818",
"q  c #7B7B39391818",
"w  c #41413C3C3B3B",
"e  c #43433F3F3D3D",
"r  c #7F7F78780000",
"t  c #7B7B42422121",
"y  c #212131314242",
"u  c #292939394A4A",
"i  c #353535356161",
"p  c #363647475A5A",
"a  c #35354A4A6363",
"s  c #393952526B6B",
"d  c #464642424141",
"f  c gray28",
"g  c #484843434242",
"h  c #4B4B46464545",
"j  c #4C4C48484747",
"k  c #4E4E4A4A4949",
"l  c #50504C4C4B4B",
"z  c #42424A4A5252",
"x  c #575753535252",
"c  c #686874744C4C",
"v  c #49495E5E6767",
"b  c #42425A5A6B6B",
"n  c #49495F5F6F6F",
"m  c #42425A5A7373",
"M  c #42425A5A7B7B",
"N  c #4A4A63637373",
"B  c #4A4A63637B7B",
"V  c #525263637373",
"C  c #525263637B7B",
"Z  c #52526B6B7B7B",
"A  c #5A5A6B6B7B7B",
"S  c #656565656565",
"D  c #6A6A6A6A6A6A",
"F  c #767676767676",
"G  c #B5B539391818",
"H  c #BDBD42421818",
"J  c #919172721414",
"K  c #8D8D46463838",
"L  c #BDBD48482121",
"P  c #BDBD54542323",
"I  c #BDBD63632929",
"U  c #CECE73732929",
"Y  c #E7E76E6E2B2B",
"T  c #F7F768682929",
"R  c #E7E77C7C2F2F",
"E  c #FCFC79792E2E",
"W  c #EAEA72723C3C",
"Q  c #7B7B8A8A7171",
"!  c #8B8B83830000",
"~  c #B9B9AFAF0000",
"^  c #BCBCB4B40A0A",
"/  c #B1B18D8D3636",
"(  c #E4E49A9A1818",
")  c #CCCCAAAA0A0A",
"_  c #FFFFAEAE0101",
"`  c #FBFBA5A50B0B",
"'  c #FCFCBABA0303",
"]  c #E4E4ADAD1818",
"[  c #F2F2AAAA1A1A",
"{  c #E4E4B8B81818",
"}  c #D8D89F9F2121",
"|  c #DEDE87873434",
" . c #C0C095953C3C",
".. c #E8E881812F2F",
"X. c #E7E781813131",
"o. c #E8E887873333",
"O. c #E8E88B8B3535",
"+. c #F7F784843030",
"@. c #FFFF85853131",
"#. c #F7F78D8D3131",
"$. c #FFFF8E8E3434",
"%. c #F7F793933535",
"&. c #FFFF99993737",
"*. c #FFFF9D9D3737",
"=. c #C2C2A0A02323",
"-. c #C0C0A8A82727",
";. c #DEDEBDBD2A2A",
":. c #EAEAA4A42F2F",
">. c #FDFDB6B62121",
",. c #E9E9A5A53B3B",
"<. c #FFFFA2A23939",
"1. c #FFFFA6A63B3B",
"2. c #F7F7A8A83939",
"3. c #F1F1AEAE3D3D",
"4. c #FFFFAAAA3D3D",
"5. c #FFFFADAD3D3D",
"6. c #FFFFB3B33E3E",
"7. c #D5D5C9C90000",
"8. c #FFFFC6C60101",
"9. c #FFFFD2D20202",
"0. c #FFFFDDDD0202",
"q. c #E6E6C4C41515",
"w. c #E3E3D7D71515",
"e. c #EEEEE0E00000",
"r. c #FFFFE8E80101",
"t. c #FEFEECEC0202",
"y. c #FFFFE9E90505",
"u. c #FCFCECEC0707",
"i. c #FFFFEDED0C0C",
"p. c #FEFEFBFB0707",
"a. c #FEFEFDFD1515",
"s. c #FFFFC3C32929",
"d. c #FFFFFDFD2929",
"f. c #F0F0E6E63939",
"g. c #FFFFFFFF3A3A",
"h. c #919192925555",
"j. c #B1B193934B4B",
"k. c #A5A5A4A44E4E",
"l. c #BDBDB6B64141",
"z. c #FEFE9B9B4646",
"x. c #CBCBA2A24B4B",
"c. c #FFFFB6B64040",
"v. c #FFFFBABA4141",
"b. c #FFFFBEBE4242",
"n. c #B2B2C2C26363",
"m. c #F2F2C4C44343",
"M. c #FFFFC1C14343",
"N. c #FFFFC7C74545",
"B. c #F4F4CDCD4747",
"V. c #FFFFCACA4646",
"C. c #FFFFCDCD4646",
"Z. c #F4F4D2D24747",
"A. c #FFFFD1D14747",
"S. c #F5F5D6D64848",
"D. c #FFFFD5D54848",
"F. c #FFFFD9D94949",
"G. c #FFFFE2E24B4B",
"H. c #FFFFFFFF4444",
"J. c #F1F1E8E85050",
"K. c #F8F8EBEB5050",
"L. c #F1F1E9E95858",
"P. c #FFFFFFFF5858",
"I. c #F9F9D5D57676",
"U. c #FFFFFEFE6262",
"Y. c #F3F3EDED7C7C",
"T. c #4A4A63638484",
"R. c #4A4A6B6B8484",
"E. c #4A4A6B6B8C8C",
"W. c #5A5A6B6B8484",
"Q. c #52526B6B8C8C",
"!. c #5A5A73738484",
"~. c #525273738C8C",
"^. c #585877778F8F",
"/. c #525273739494",
"(. c #5A5A73739494",
"). c #52527B7B9494",
"_. c #5A5A7B7B9494",
"`. c #5A5A7B7B9C9C",
"'. c #636373738C8C",
"]. c #61617C7C9999",
"[. c #6B6B84849999",
"{. c #5A5A8484A5A5",
"}. c #63638484A5A5",
"|. c #6B6B8C8CA5A5",
" X c #63638484ADAD",
".X c #63638C8CADAD",
"XX c #6B6B8C8CADAD",
"oX c #73738C8CA8A8",
"OX c #63638C8CB5B5",
"+X c #6B6B8C8CB5B5",
"@X c #6B6B9494B5B5",
"#X c #6B6B9494BDBD",
"$X c #72729494B5B5",
"%X c #73739494BDBD",
"&X c #73739C9CBDBD",
"*X c #73739C9CC6C6",
"=X c #7B7B9C9CC6C6",
"-X c #7B7BA5A5C6C6",
";X c #7373A5A5CECE",
":X c #7B7BA5A5CECE",
">X c #7B7BADADD6D6",
",X c #888888888888",
"<X c #979797979797",
"1X c #BBBBBABA9797",
"2X c #84849898B3B3",
"3X c #9898AFAFB6B6",
"4X c gray65",
"5X c gray",
"6X c #DCDCC8C88787",
"7X c #FFFFFDFD8A8A",
"8X c #FFFFFDFD9B9B",
"9X c #FFFFC8C8A1A1",
"0X c #F7F7F3F3A5A5",
"qX c #FBFBF6F6B8B8",
"wX c #8484A5A5C6C6",
"eX c #8C8CA5A5C6C6",
"rX c #8484A5A5CECE",
"tX c #9C9CB5B5CBCB",
"yX c #8787ADADD6D6",
"uX c #8484B5B5D6D6",
"iX c #8C8CB5B5D6D6",
"pX c #8C8CBDBDD6D6",
"aX c #9494B5B5D6D6",
"sX c #A9A9B9B9CACA",
"dX c #A5A5BDBDD6D6",
"fX c #9494C6C6D6D6",
"gX c #B5B5C6C6CECE",
"hX c #A5A5C6C6D6D6",
"jX c #B5B5C6C6D6D6",
"kX c #BDBDCECEDEDE",
"lX c #9C9CC6C6F7F7",
"zX c #A9A9CACAE7E7",
"xX c #BDBDE7E7E7E7",
"cX c #C6C6CECEDEDE",
"vX c gray82",
"bX c #D7D7DDDDDFDF",
"nX c gray86",
"mX c #FEFEFCFCC7C7",
"MX c #FFFFFDFDD9D9",
"NX c #CECED6D6E7E7",
"BX c #D6D6DEDEE7E7",
"VX c #DADAEBEBF7F7",
"CX c #E7E7EFEFEFEF",
"ZX c #FCFCFAFAE2E2",
"AX c #F0F0F5F5EEEE",
"SX c #FFFFFEFEEFEF",
"DX c #EFEFEFEFF7F7",
"FX c #EFEFF7F7F7F7",
"GX c #F3F3F3F3F3F3",
"HX c #FFFFFEFEF6F6",
"JX c #FFFFFFFFF9F9",
"KX c gray100",
"LX c None",
/* pixels */
"LXdX}./.Q.Q.Q./././././././././././././././././.(.`.`.`.(.B A LX",
"zXxXXXB N N V Z W.W.W.W.W.W.W.W.W.W.W.W.W.W.W.W.'.[.2XeXoXB u z ",
"yXzXsXKXKXKXKXKXKXKXKXKXKXKXKXKXKXKXKXKXKXKXKXKXKXKXKXKXKX[.y p ",
"&X_.KXVXpXyX;X*X*X*X*X*X*X*X*X*X*X*X&X&X&X&X&X%X@X X`.R.KXaXT.2 ",
"@X!.KXhXfX>X*X#X@X@X@X@X@X@X@X@X@X@X@X@X@X@X+XOX}.).R.m KX{.s $ ",
"$XZ KXfXiXBXVXFXtXBXFXkXtXCXFXsX X X X X}.}.{.`./.T.m KX+X/.y   ",
"%XC KXpX>XBXFXFXsXBXFXFXgXbXAXFX`.`.`.`.`./.~.R.B m KX#X}.a @ LX",
"=XC KXiX:XwXFXFX].|.FXDX`.j.I.CX`./././.~.E.T.m b KX#X@Xm *   LX",
"-XC KXuX:XtXFXjX/.x.AXcX/.[ >.sX/.^./ Q.E.T.m b KX#X@Xm =   LXLX",
"rXC KXuX:XjXFX2X/.:.` 1X^.' 8.3XQ ` } E.T.m b KX#X@Xm =   # LXLX",
"rXC KXuX;XNXFXoX/.6X_ 8.0.y.y.r.0.8.h.T.m b KX#X@Xm =   t # LXLX",
"rXC KXuX;XCXFX]./.CX9.i.d.P.U.g.a.t.T.m b KX#X@Xm = X | t # LXLX",
"rXC KXuX;XOX .( ] q.u.H.mXHXKXSX7Xa.w.q.s.x.@Xm = X 3.| t # LXLX",
"rXC KXuX;XOX].} _ 0.d.mXKXKXKXKXJXU.p.0.;.@Xm = X m.3.O.q # LXLX",
"rXC KXuX;XOX`./.k.y.H.HXKXKXe.Y.mXqXp.n.#Xm = - B.m.v.O.q # LXLX",
"rXC KXuX;XOX`./.k.i.P.KXKXe.r e.e.0Xa.n.m = - G.B.C.b.O.q # LXLX",
"rXC KXuX;XOX].} ' r.g.SXKX^ e.r e.J.J.K.) , G.Z.D.V.c.O.q # LXLX",
"rXC KXuX;XOX .( { w.p.8XKXKX~ e.r e.e.e.0XqXZ.D.C.M.4.o.q # LXLX",
"rXC KXuX;XOX`././.Q.t.d.7XMXl.~ e.r e.e.Y.qXZXA.N.c.<...0 # LXLX",
"rXC KXuX;XOX`./.Q.h.9.t.p.a.d.^ 7.e.r r e.e.Y.I.b.5.*...0 # LXLX",
"rXC KXuX;XOX`.~.E.} ' c HXr.t.n ~ ~ e.& ! e.Y.Y.6.1.&.X.7 # LXLX",
"rXC KXuX;XOX`.Q.T./ v KX#Xq.q.= i 7.7.e.e.e.L.J.vXGXz.R 0 # LXLX",
"rXC KXuX*X.X/.T.m b KX#X+X/ J : G.-.~ 7.7.e.f.d e 5X9XY 7 # LXLX",
"rXA KXuX*X}.E.M b KX#X@Xm - o G.S.F.-.=.~ ~ ; S S ,XnXW 7 # LXLX",
"rXW.KXyX#X`.T.m KX#X@Xm = . G.Z.D.C.M.c.6.  1 h x D ,XnXK # LXLX",
"rX'.KX:X.X~.m KX#X@Xm = . G.G.A.N.v.6.5.4.% 4 1 h l D ,XnX% LXLX",
"rXoXKX#X`.B KX#X@Xm = . B.B.C.M.c.4.1.<.&.$.9 > 3 k g l <X4XLXLX",
"$X2XKX}.R.KX#X@Xm = O m.m.N.v.5.<.*.&.$.@.E E 8 > 3 e h l F LXLX",
"$XaXKXKXKX#X+Xm = . ,.,.2.2.%.%.#.+.+.E T T T T 6 > 1 w h j LXLX",
".XlX2X+X+X/.s =   U U I I I P P P P L L L L H G G 5 < 3 e d LXLX",
"p Q.a T.s u *   # # # # # # # # # # # # # # # # # # # % f f LXLX",
"LXp * + = @ LXLXLXLXLXLXLXLXLXLXLXLXLXLXLXLXLXLXLXLXLXLXLXLXLXLX"
};
