/* XPM */
static char *torus_trooper_pure[] = {
/* columns rows colors chars-per-pixel */
"32 32 53 1 ",
"  c #020202020202",
". c gray3",
"X c #111111111111",
"o c #161616161616",
"O c #191919191919",
"+ c gray13",
"@ c #272727272727",
"# c #2A2A2A2A2A2A",
"$ c gray18",
"% c gray21",
"& c gray23",
"* c #3C3C3C3C3C3C",
"= c #414141414141",
"- c #444444444444",
"; c #4B4B4B4B4B4B",
": c #4C4C4C4C4C4C",
"> c #515151515151",
", c #585858585858",
"< c gray37",
"1 c #606060606060",
"2 c gray40",
"3 c #6A6A6A6A6A6A",
"4 c #6C6C6C6C6C6C",
"5 c #727272727272",
"6 c #767676767676",
"7 c gray47",
"8 c gray49",
"9 c gray51",
"0 c gray53",
"q c #8B8B8B8B8B8B",
"w c #8D8D8D8D8D8D",
"e c #939393939393",
"r c #989898989898",
"t c #9D9D9D9D9D9D",
"y c #A2A2A2A2A2A2",
"u c gray65",
"i c gray66",
"p c #AFAFAFAFAFAF",
"a c #B1B1B1B1B1B1",
"s c #B6B6B6B6B6B6",
"d c gray72",
"f c gray",
"g c #C0C0C0C0C0C0",
"h c gray78",
"j c #CACACACACACA",
"k c #CECECECECECE",
"l c #D0D0D0D0D0D0",
"z c gray83",
"x c #DADADADADADA",
"c c #DDDDDDDDDDDD",
"v c #E1E1E1E1E1E1",
"b c gray100",
"n c None",
/* pixels */
"nnnnnnnnnnnn X+$-,4778663,*#O.nn",
"nnnnnnnn +-5qudzxzkfssffkzzlsr5*",
"nnnnn $4tpgjse1-***====****;7ihd",
"nnnX1pfpi6;%*=-;:;;;;;:;:::;-*%>",
"n@qkdr5=&=;;;;;;;;;;;;;;;;;;:;:;",
"ecy5,==;;;;;;;;;;;;;;;;;;;;;:;;;",
"u<;=;;::;;;;;;;;;;;;;;;;;;;;;;;;",
"-;;;;;;;;;;;;;;;;;;;;;;;;;;;;;;;",
";;;;;;;;;;;;;;;;;;;;;;;;;;;;;;;;",
";;;;;;;;;;;;;;;;;;;;;;;;;;;;;;;;",
";;;;;;;;;;;;;;;;;;;;;;;;;;;;;;;;",
";;;;;;;;;;;;;;;;;;;;;;;;;;;;;;;;",
";;;;;;;;;;;;;;;;;;;;;;;;;;;;;;;;",
";;;;;;;;;;;;;;;;;;;;;;;;;;;;;;;;",
";;;;;;;;;;;;;;;;;;;;;;;;;;;;;;;;",
";;;;;;;;;;;;;;;;;;;;;;;;;;;;;;;;",
";;;;;;;;;;;;;;;;;::::;;:;;:;;::;",
";;;;;;;;;;;;;;;;1787874887874:;;",
";;;;;;;;;;;;;;;;ybbbbbbbbbbbk;;;",
";;;;;;;;;;;;;;;;;:7bt;;;7bt::;;;",
";;;;;;;;;;;;;;;;;;8bt:;;7bt;;;;;",
";;;;;;;;;;;;;;;;;;7bt:;;8by:;;;:",
";;;;;;;;;;;;;;;;;;7by;;;7bt:;;:*",
";;;;;;;;;;;;;;;;;;8bt:;;7bt;;;&9",
";;;;;;;;;;;;;;;;;:7bt;;;8bt-;<fk",
";;;;;;;;;;;;;;;;;::;:;;:;=;<uv0+",
";;;;;;;;;;;;;;;;;;;;:;-*;4rcu%nn",
";;;;;;;;;;;;;;;;;;;;**<quli-nnnn",
";:;;;::;:;;:::;;-&%>wsgs9#nnnnnn",
"*==-;--;-;--=**>7pjhaw:Xnnnnnnnn",
"xfy92<13330tszcksr4=onnnnnnnnnnn",
",7wudggddsyw83=+o.nnnnnnnnnnnnnn"
};
