/* XPM */
static char *balsa[] = {
/* columns rows colors chars-per-pixel */
"32 32 203 2 ",
"   c #6B497B46543F",
".  c #6E546D5A6A6C",
"X  c #70706F6F6C6C",
"o  c #717170706D6D",
"O  c #757574747171",
"+  c #797978787373",
"@  c #7C7C7A7A7777",
"#  c #80FF7FFF7A06",
"$  c #4B4B88880303",
"%  c #4D4D8A8A0404",
"&  c #4D4D8A8A0606",
"*  c #4E4E8C8C0404",
"=  c #4F4F8E8E0808",
"-  c #50508E8E0606",
";  c #525294940707",
":  c #58589E9E0505",
">  c #575798980D0D",
",  c #585898980F0F",
"<  c #5D5DA7A70707",
"1  c #5E5EA7A70606",
"2  c #5F5FABAB0707",
"3  c #5FC8AADD0AB4",
"4  c #5B79B7780074",
"5  c #6161ACAC0606",
"6  c #6464B2B20606",
"7  c #6363B7B70404",
"8  c #636EBA6C0169",
"9  c #6565BFBF0000",
"0  c #6868BBBB0707",
"q  c #6262B1B10909",
"w  c #6363B1B10F0F",
"e  c #6565B4B40D0D",
"r  c #6868BCBC0808",
"t  c #6868BCBC0909",
"y  c #6868BDBD0B0B",
"u  c #6A71BE6F0A6E",
"i  c #6868BBBB0E0E",
"p  c #6868BABA0F0F",
"a  c #6262ACAC1010",
"s  c #6565B2B21111",
"d  c #6565B5B51010",
"f  c #6767B7B71515",
"g  c #6969BCBC1010",
"h  c #6969BCBC1212",
"j  c #6A6AB9B91717",
"k  c #6C6CBDBD1414",
"l  c #6B6BB2B21818",
"z  c #77BAB55E2C22",
"x  c #7C5DB3D43A42",
"c  c #6A6AC6C60000",
"v  c #6D6DC4C40303",
"b  c #6B6BC1C10707",
"n  c #6C6CC1C10606",
"m  c #6F6FC7C70606",
"M  c #6F6FC7C70707",
"N  c #6B6BC8C80000",
"B  c #6D6DC8C80000",
"V  c #6F6FC9C90202",
"C  c #6FE9C9E802EA",
"Z  c #6B6BC3C30909",
"A  c #6E6EC2C20B0B",
"S  c #6E6EC6C60808",
"D  c #6969C0C00F0F",
"F  c #7070C9C90404",
"G  c #7070CACA0404",
"H  c #70DCCADB04DD",
"J  c #7171CA9D073B",
"K  c #7272CBCB0707",
"L  c #71DCCADB07DD",
"P  c #7285CACE0802",
"I  c #7272CBCB0808",
"U  c #7373CBCB0808",
"Y  c #72E5CAE408E6",
"T  c #7272CBCB0909",
"R  c #7373CBCB0909",
"E  c #73DCCBDB09DD",
"W  c #7373CACA0B0B",
"Q  c #7575CBCB0B0B",
"!  c #7575CBCB0E0E",
"~  c #7676CBCB0F0F",
"^  c #7575CCCC0C0C",
"/  c #7575CCCC0D0D",
"(  c #7777CCCC1111",
")  c #7C7CCECE1818",
"_  c #7C7CA6A64646",
"`  c #7C8B90146137",
"'  c #83E4BED93C15",
"]  c #8383CFCF2525",
"[  c #8383CFCF2929",
"{  c #8787D0D02C2C",
"}  c #88E5D2E42EE5",
"|  c #8787CCCC3131",
" . c #8722CD6E332B",
".. c #8787C8C83F3F",
"X. c #8B8BD0D03535",
"o. c #8C8CD0D03636",
"O. c #8D8DD4D43737",
"+. c #8F8FD3D33E3E",
"@. c #8407B6A94AF2",
"#. c #818180807A7A",
"$. c #848483837E7E",
"%. c #926EA91B7857",
"&. c #8A8ACBCB4141",
"*. c #92E5D6E440E5",
"=. c #9797D6D64B4B",
"-. c #9A9AD9D94F4F",
";. c #9051C0F35617",
":. c #9A9AD7D75151",
">. c #9A34D1B2552A",
",. c #9E9EDBDB5555",
"<. c #9C9DD2195A7D",
"1. c #AC2BCE887DD1",
"2. c #858584848080",
"3. c #888886868181",
"4. c #8B8B8A8A8585",
"5. c #90908F8F8B8B",
"6. c #929291918B8B",
"7. c #979796968F8F",
"8. c #969695959090",
"9. c #95C29D7F94A0",
"0. c #9A9A99999797",
"q. c #9C9C9A9A9696",
"w. c #9E9E9C9C9696",
"e. c #A0A09F9F9A9A",
"r. c #9E9EA5A59E9E",
"t. c #A434BC97837A",
"y. c #A630BE3A8800",
"u. c #A2A2A1A19A9A",
"i. c #A7A7A6A6A0A0",
"p. c #A8A8A6A6A1A1",
"a. c #ACACACACA5A5",
"s. c #AF37B463A7BE",
"d. c #ABABB1B1ABAB",
"f. c #AEAEB4B4AEAE",
"g. c #B0B0B6B6B0B0",
"h. c #B6B6B6B6B6B6",
"j. c #B7B7BCBCB7B7",
"k. c #BBBBBBBBBBBB",
"l. c gray74",
"z. c #AE03CCEE8585",
"x. c #ADFCC65E8E8A",
"c. c #BFEEE6EE90EF",
"v. c #BD76CAB0AFD2",
"b. c #BCBCC2C2BCBC",
"n. c #C1C1E7E79494",
"m. c #C4C4E8E89797",
"M. c #CACAE9E9A7A7",
"N. c #CECEEAEAADAD",
"B. c #D0D0EDEDADAD",
"V. c gray76",
"C. c #C5C5C5C5C5C5",
"Z. c #C6B0C752C5B9",
"A. c #C8C8C8C8C8C8",
"S. c #CBCBCECECBCB",
"D. c gray80",
"F. c #CEBED434C78F",
"G. c #CCCCD0D0CCCC",
"H. c #D1F8D648CDD0",
"J. c LightGray",
"K. c gray83",
"L. c #D6E5D79BD5E7",
"P. c #D6CCD6CCD6CC",
"I. c #D7D7D7D7D7D7",
"U. c #D7D7DADAD7D7",
"Y. c #D8C9DC63D5C6",
"T. c #DABDDD46D78A",
"R. c #D8D8D8D8D8D8",
"E. c gray86",
"W. c gainsboro",
"Q. c #DDA2DDA2DDA2",
"!. c #DE6FDF55DD3D",
"~. c #DCDCF1F1C3C3",
"^. c #DF92E186DD4E",
"/. c #DEDEE0E0DEDE",
"(. c #E5E5F3F3D5D5",
"). c #EBEBF7F7DEDE",
"_. c gray88",
"`. c #E2E7E3E4E2DD",
"'. c gray89",
"]. c #E4E6E78AE40B",
"[. c #E4E4E4E4E4E4",
"{. c #E7E7E9E9E7E7",
"}. c gray91",
"|. c gray92",
" X c #EAEAECECEAEA",
".X c #ECD7EEDBEA8A",
"XX c #EEEEEEEEEEEE",
"oX c #EF74F873E570",
"OX c #EFEFF0F0EFEF",
"+X c #F3F3FAFAEBEB",
"@X c #F5F5FAFAEDED",
"#X c gray94",
"$X c #F1F1F1F1F1F1",
"%X c #F3F3F4F4F3F3",
"&X c #F5F5F4F4F4F4",
"*X c gray96",
"=X c #F9F9FCFCF4F4",
"-X c #F9F9FCFCF6F6",
";X c #F8F8F8F8F8F8",
":X c gray98",
">X c #FBFBFDFDF8F8",
",X c gray99",
"<X c None",
/* pixels */
"<X<X<X<X<X<X<X<X<X<X<X<X<X<X<X<X<X<X<X<X<X<X<X<X<X<X<X<X<X<X<X<X",
"<X<X<X<X<X<X<X<X<X<X<X<X5.4.4.2.2.2.$.$.<X<X<X<X<X<X<X<X<X<X<X<X",
"<X<X<X<X<X<X<X<X<X<X<X7.$X,X,X,X:X:X:X$X5.<X<X<X<X<X<X<X<X<X<X<X",
"<X<X<X<X<X<X<X<X<X<Xu.:X*XOXOX}.}.XX[.$X:Xq.<X<X<X<X<X<X<X<X<X<X",
"<X<X<X<X<X<X<X<X<Xp.,X$XXX}.}.'.[.[.`.`.`.:Xq.<X<X<X<X<X<X<X<X<X",
"<X<X<X<X<X<X<X<Xa.,X$XXX'.}.[.`.[.W.E.E.W.`.*X0.<X<X<X<X<X<X<X<X",
"<X<X<X<X<X<X<Xa.,X$X{.{.}.'.`.`./.W.W.I.E.I.`.$X8.<X<X<X<X<X<X<X",
"<X<X<X<X<X<Xi.:X$X'.`.'.'.'.W.E.W.W.W.W.I.J.J.E.XX2.<X<X<X<X<X<X",
"<X<X<X<X<Xu.:X$X[.[.`.`.W.`.E.E.I.E.I.J.I.I.A.S.W.[.@ <X<X<X<X<X",
"<X<X<X<Xu.*X$X[.[.[./.E.E.E.E.L.J.J.J.J.A.D.l.h.C.[.E.+ <X<X<X<X",
"<X<X<Xe.[.*X[.`.`.E.W.W.E.I.I.J.I.A.A.h.C.[.:X:Xl.D.`.C.O <X<X<X",
"<X<X<Xw.:X`.`.W.W.E.I.E.I.J.D.k.V.E.*X,X,X:X:X:XXXV.D.XXo <X<X<X",
"<X<X<Xw.,X`.W.E.W.I.I.V.k.J.XX,X,X:X:X:X*X*X*X*X:Xl.D.XXo <X<X<X",
"<X<X<Xw.,X/.W.D.l.D.[.:X,X,X:X;X:X*X*X$X$X*X*X$X#X`.I.$Xo <X<X<X",
"<X<X<Xw.,X*XG.*X:X,X:X:X*X*X*X$X$X$X$X$X$XXXXXXXXXJ.XXXXo <X<X<X",
"<X<X<Xw.,X*X$XS.*X*X*X*X*X$X$X$XXXXXXXXXXXXX}.XXC.`.}.XXo <X<X<X",
"<X<X<Xq.,X$X$X.Xj.$X$X$X$X$XXXXXXX}.XX[.}.}.[.V.W.[.}.XXX <X<X<X",
"<X<X<Xw.,X#X#X$X`.g.{.`.}.[.}.`.}.XX'.XX{.`.C.I.W.`.]..XX <X<X<X",
"<X<X<Xw.,X$XXXXXXXE.d.E.W.W.E.E.W.W.E.W.I.s.t.z.1.z.x.F.. <X<X<X",
"<X<X<X0.,X$XXX$XXXXXA.g.V.r.r.r.r.r.r.9.%.<.} ) / ) ] >.` <X<X<X",
"<X<X<Xq.,X$X X{.}.}.XXf.f.$X,X%X$X}.W.y.o./ F F P B *.,.X._ <X<X",
"<X<X<Xq.,X}.{.#XXX`.b.S.*XXX[.XXXX[.v. .U P ! U B } +Xn.N  .<X<X",
"<X<X<Xw.:X}.$X}.`.V.}.#X.X'.{.'.[./.;.! U U P P F m.-Xc P ( l <X",
"<X<X<Xw.,X{.'.E.D.&X}.XX[.[.[.[.[.T.' U U U P F O.@X-.F P F 6 <X",
"<X<X<Xq.:X[.W.{.$X[.[.$X`.`.[.'.'.H.z K R B m P B.~.( P P R 5 <X",
"<X<X<Xw.*X[.*X.X[.`.[.[.`.`.[.[.W.T.x n [ n.=.+.>X:.m P m S 1 <X",
"<X<X<Xq.:X*X*X$X$X$X$X$XXX$X#X}.XX.X@.t c N.=X).M.A b n Z r : <X",
"<X<X<X8.7.7.8.5.6.6.4.4.2.2.$.$.#.#.  < i 4 (.oX&.8 r r D 2 <X<X",
"<X<X<X<X<X<X<X<X<X<X<X<X<X<X<X<X<X<X<X= e p k &.7 i h h q % <X<X",
"<X<X<X<X<X<X<X<X<X<X<X<X<X<X<X<X<X<X<X<X% a s d j f w < $ <X<X<X",
"<X<X<X<X<X<X<X<X<X<X<X<X<X<X<X<X<X<X<X<X<X<X- , > ; * <X<X<X<X<X",
"<X<X<X<X<X<X<X<X<X<X<X<X<X<X<X<X<X<X<X<X<X<X<X<X<X<X<X<X<X<X<X<X"
};
