/* XPM */
static char *neverball[] = {
/* columns rows colors chars-per-pixel */
"32 32 209 2 ",
"   c #060606060606",
".  c #0B0B0B0B0B0B",
"X  c gray6",
"o  c gray7",
"O  c #151515151515",
"+  c #181818181818",
"@  c gray11",
"#  c #222222222222",
"$  c gray15",
"%  c #282828282828",
"&  c #2F2F2F2F2F2F",
"*  c gray19",
"=  c #343434343434",
"-  c gray22",
";  c gray24",
":  c #3F1E68DB0D4C",
">  c #33BB419C237E",
",  c #3D6E48A62FCA",
"<  c #57437A152EBB",
"1  c #414141414141",
"2  c #455245524552",
"3  c gray28",
"4  c #47F547F547F5",
"5  c gray29",
"6  c #4E4E4E4E4E4E",
"7  c #535353535353",
"8  c #565656565656",
"9  c #5B5B5B5B5B5B",
"0  c #5F5F5F5F5F5F",
"q  c #606060606060",
"w  c #646464646464",
"e  c #69266B526721",
"r  c #69FA6B1C68C6",
"t  c gray42",
"y  c #6F6F6F6F6F6F",
"u  c #717171717171",
"i  c #767676767676",
"p  c gray48",
"a  c #7C7C7C7C7C7C",
"s  c #7E627F127D87",
"d  c #7E7E7E7E7E7E",
"f  c #4B4B88880303",
"g  c #4D4D8A8A0404",
"h  c #4E4E8C8C0404",
"j  c #525294940707",
"k  c #58589E9E0505",
"l  c #575798980D0D",
"z  c #585898980F0F",
"x  c #50F381961818",
"c  c #5D5DA7A70707",
"v  c #5E5EA7A70606",
"b  c #5F5FABAB0707",
"n  c #5B8FB78F0090",
"m  c #6161ACAC0606",
"M  c #6069AB830B6E",
"N  c #6464B2B20606",
"B  c #6363B7B70404",
"V  c #634EBA4D014F",
"C  c #6565BFBF0000",
"Z  c #6868BBBB0707",
"A  c #6262B1B10909",
"S  c #6363B1B10F0F",
"D  c #6565B4B40D0D",
"F  c #6868BCBC0808",
"G  c #6868BCBC0909",
"H  c #6868BDBD0B0B",
"J  c #6A6ABEBE0A0A",
"K  c #6868BBBB0E0E",
"L  c #6868BABA0F0F",
"P  c #6238AAC211D6",
"I  c #6565B2B21111",
"U  c #6565B5B51010",
"Y  c #6767B7B71515",
"T  c #6969BCBC1010",
"R  c #6969BCBC1212",
"E  c #6A6AB9B91717",
"W  c #6C64BD631465",
"Q  c #67BE8C733E5F",
"!  c #786BB5E32CD3",
"~  c #73DFA5E83ACA",
"^  c #79ADB1253793",
"/  c #6A6AC6C60000",
"(  c #6D6DC4C40303",
")  c #6B6BC1C10707",
"_  c #6C6CC1C10606",
"`  c #6F6FC7C70606",
"'  c #6F6FC7C70707",
"]  c #6B6BC8C80000",
"[  c #6D6DC8C80000",
"{  c #6F70C9B3021E",
"}  c #6B6BC3C30909",
"|  c #6E6EC2C20B0B",
" . c #6E6EC6C60808",
".. c #6969C0C00F0F",
"X. c #7070C9C90404",
"o. c #7070CACA0404",
"O. c #70ECCAEB04ED",
"+. c #716BCA970736",
"@. c #7272CBCB0707",
"#. c #71EECAED07EF",
"$. c #7287CAD00804",
"%. c #7272CBCB0808",
"&. c #7373CBCB0808",
"*. c #72D5CAD408D6",
"=. c #7272CBCB0909",
"-. c #7373CBCB0909",
";. c #73D5CBD409D6",
":. c #7373CACA0B0B",
">. c #7575CBCB0B0B",
",. c #7575CBCB0E0E",
"<. c #7676CBCB0F0F",
"1. c #7575CCCC0C0C",
"2. c #7575CCCC0D0D",
"3. c #7777CCCC1111",
"4. c #7C7CCECE1818",
"5. c #7007878251D7",
"6. c #8383CFCF2525",
"7. c #8383CFCF2929",
"8. c #8787D0D02C2C",
"9. c #88B8D2B82EB9",
"0. c #8651C9AF3259",
"q. c #879ACDE633A3",
"w. c #865FC1543E90",
"e. c #8787C8C83F3F",
"r. c #8B8BD0D03535",
"t. c #8C8CD0D03636",
"y. c #8D8DD4D43737",
"u. c #8F8FD3D33E3E",
"i. c #85F899F46C6F",
"p. c #891499BE76C8",
"a. c #8967A1C969F5",
"s. c #8A8ACBCB4141",
"d. c #92ADD6AD40AE",
"f. c #9797D6D64B4B",
"g. c #9A9AD9D94F4F",
"h. c #97E8CF5552DD",
"j. c #95BCC65F5B82",
"k. c #9A9AD7D75151",
"l. c #9E9EDBDB5555",
"z. c #9E89D4045C69",
"x. c #A7DAC6C67F5D",
"c. c #A9EBCC487B90",
"v. c gray51",
"b. c #868686868686",
"n. c #898989898989",
"m. c #8B9E8B9E8B9E",
"M. c #8D478DF48CAD",
"N. c gray56",
"B. c gray57",
"V. c #959595959595",
"C. c #9A9A9A9A9A9A",
"Z. c gray62",
"A. c #A02BA5A198FC",
"S. c gray63",
"D. c #A7A7A7A7A7A7",
"F. c gray67",
"G. c #ACFFACFFAD06",
"H. c gray68",
"J. c #B4B4B4B4B4B4",
"K. c gray72",
"L. c #BE2AC02EBBDD",
"P. c #AF59CE4586DC",
"I. c #B424CC86936A",
"U. c #B4DECCE896AE",
"Y. c #BF8FE68E908F",
"T. c #BA5FCE5BA048",
"R. c #C1C1E7E79494",
"E. c #C4C4E8E89797",
"W. c #CC2ED800BE8A",
"Q. c #CACAE9E9A7A7",
"!. c #CECEEAEAADAD",
"~. c #D0D0EDEDADAD",
"^. c #C1C1C1C1C1C1",
"/. c gray78",
"(. c #C8B9CB61C5B6",
"). c gray79",
"_. c #CD60CE09CC62",
"`. c gray81",
"'. c #D2E1D648CEB9",
"]. c gray82",
"[. c gray83",
"{. c #D8C6DDF2D14D",
"}. c #D8D8D8D8D8D8",
"|. c #D9CADAB0D897",
" X c #DDDDDDDDDDDD",
".X c #DCDCF1F1C3C3",
"XX c #E5E5F3F3D5D5",
"oX c #EBEBF7F7DEDE",
"OX c gray89",
"+X c #E43AE6C3E107",
"@X c #E6E6E6E6E6E6",
"#X c gray92",
"$X c #ED77EEABEC55",
"%X c gray93",
"&X c #EDDBEE90ECDD",
"*X c #EF70F870E570",
"=X c #F3F3FAFAEBEB",
"-X c #F5F5FAFAEDED",
";X c #F3F3F3F3F3F3",
":X c #F3FEF5F2F1BA",
">X c #F4F4F4F4F4F4",
",X c #F58DF62FF496",
"<X c #F60AF60AF60A",
"1X c #F9F9FCFCF4F4",
"2X c #F9F9FCFCF6F6",
"3X c #F8F8F8F8F8F8",
"4X c #FBFBFDFDF8F8",
"5X c gray99",
"6X c None",
/* pixels */
"6X6X6X6X6X6X6X6X6X6X6X6X6X$ % $       6X6X6X6X6X6X6X6X6X6X6X6X6X",
"6X6X6X6X6X6X6X6X6X6X& ; 3 6 8 6 o o X .     6X6X6X6X6X6X6X6X6X6X",
"6X6X6X6X6X6X6X6X* 3 8 w b.D.K.).D.V.u 5 @ o X   6X6X6X6X6X6X6X6X",
"6X6X6X6X6X6X% 1 7 t V.a ]. X@X#XOX[.^.G.V.9 @ o .   6X6X6X6X6X6X",
"6X6X6X6X6X& 3 9 i D.a ].}.@X;X3X;X X`.J.S.n.t % O X   6X6X6X6X6X",
"6X6X6X6X* 5 q i S.K.).[.OX#X;X;XOX[.).J.S.N.i 8 $ + o   6X6X6X6X",
"6X6X6X& 3 0 i B.G.^.].}.@X#X#X>X).).K.F.C.n.i 0 - $ + X   6X6X6X",
"6X6X6X1 0 i n.S.K.).}.OX@X#X;X;XJ.G.F.C.N.a y 9 ; & $ O . 6X6X6X",
"6X6X- 8 y b.C.G.^.]. X@X#X>X>X#XC.V.B.b.a u q 6 - = & @ O   6X6X",
"6X% 5 w a V.F.K.).}.@X#X>X>X>X#Xa p i u t 0 7 3 ; - * % @ X   6X",
"6X= 8 u n.S.J./.[. X#X;X>X5X>X#Xq 0 8 8 6 5 1 1 1 ; = * # O   6X",
"6X3 q a V.G.a /.J.C.G.}.#XK.q 8 5X3X;X X/.F.N.q 3 ; - * $ + . 6X",
"& 5 t b.N.p q 3 1 5 v.].@XJ.8 - 5X5X5X5X5X5X>X#X].S.y ; % @ o   ",
"* 7 8 1 = ; 1 1 1 ; 9 C.J.b.* * 5X5X5X5X5X5X>X#XOX].a D.u = o   ",
"# @ # & - ; 1 1 1 ; = 5 3 % O % 5X5X5X5X5X5X3X#XOX].^.F.B.p 5 O ",
"  O # * - 1 3 1 ; = = % # O O $ 5X5X5X5X5X5X3X#X@X]./.G.V.p 9 & ",
"  O $ & - ; 1 1 ; - - * * % $ = 5X5X5X5X5X5X3X#X#X].^.G.V.p q & ",
"  o # & - ; 3 1 3 3 3 1 ; - = 3 5X5X5X5X5X5X>X#X|._.a D.B.p 0 $ ",
"  o # & - ; 1 5 6 6 7 6 6 6 5 9 5X5X5X5X>X{.I.P.c.P.a.A.n.u 8 $ ",
"  X @ & = ; 3 6 8 9 0 q 0 0 0 y 5X5X5X#XT.z.7.4.&.4.6.h.i.t 7 O ",
"6X. + % * 1 5 8 0 w y y y u u v.5X5X>XU.t.2.@.@.-.[ d.l.t.5.3 6X",
"6X  O $ * 1 6 9 q y u p v.v.v.B.5X5XW.q.1.&.-.-.{ 9.-XY.] 0., 6X",
"6X  X @ & ; 6 9 t u a b.n.B.B.Z.5X>Xj.2.@.-.-.-.X.E.2X/ @.<.x 6X",
"6X6X. + & - 6 0 w i a n.B.V.C.D.>X+Xw.@.&.-.@.{ t.=Xg.{ -.@.N 6X",
"6X6X  o $ = 5 8 w i a N.B.Z.Z.F.@X'.! -.-.[ { -.~..X3.-.-.-.b 6X",
"6X6X6XX + & ; 7 0 y a n.B.C.S.D.[.(.^ ( 7.E.f.u.4Xk.' X.'  .v 6X",
"6X6X6X6Xo $ = 3 8 w u v.n.V.C.S.^.L.~ G C !.2XoXQ.| ) ) } J k 6X",
"6X6X6X6X6XO % - 5 9 t i v.n.B.C.G.G.p.M F n XX*Xs.V F J T b 6X6X",
"6X6X6X6X6X6XO % - 5 8 w u a v.n.V.V.N.Q D K E e.B K R R A g 6X6X",
"6X6X6X6X6X6X6XO $ = 1 7 0 w y u a p y e < P D U E Y S b f 6X6X6X",
"6X6X6X6X6X6X6X6X6X@ % = 1 6 8 0 0 9 9 6 5 > : z l j h 6X6X6X6X6X",
"6X6X6X6X6X6X6X6X6X6X6X6X# % * * * * & $ 6X6X6X6X6X6X6X6X6X6X6X6X"
};
