/* XPM */
static char *nfoview[] = {
/* columns rows colors chars-per-pixel */
"32 32 209 2 ",
"   c #39393D3D3F3F",
".  c #3E3E43434242",
"X  c #3F3F45454545",
"o  c #4D4D51515050",
"O  c #57575A5A5656",
"+  c #606062625E5E",
"@  c #646466666262",
"#  c #69696B6B6666",
"$  c #6C6C6E6E6969",
"%  c #727274747070",
"&  c #79797D7D7B7B",
"*  c #7D7D7E7E7979",
"=  c #4B4B88880303",
"-  c #4D4D8A8A0404",
";  c #4D4D8A8A0606",
":  c #4E4E8C8C0404",
">  c #50508E8E0606",
",  c #525294940707",
"<  c #58589E9E0505",
"1  c #575798980D0D",
"2  c #585898980F0F",
"3  c #5D5DA7A70707",
"4  c #5E5EA7A70606",
"5  c #5F5FABAB0707",
"6  c #5BF1B7F000F0",
"7  c #6161ACAC0606",
"8  c #61A8ACC10CA4",
"9  c #6464B2B20606",
"0  c #6363B7B70404",
"q  c #63EDBAED01ED",
"w  c #6565BFBF0000",
"e  c #6868BBBB0707",
"r  c #6262B1B10909",
"t  c #6363B1B10F0F",
"y  c #6565B4B40D0D",
"u  c #6868BCBC0808",
"i  c #6868BCBC0909",
"p  c #6868BDBD0B0B",
"a  c #6AEFBEEE0AEE",
"s  c #6868BBBB0E0E",
"d  c #6868BABA0F0F",
"f  c #6262ACAC1010",
"g  c #6565B2B21111",
"h  c #6565B5B51010",
"j  c #6767B7B71515",
"k  c #6988BC8A1086",
"l  c #6969BCBC1212",
"z  c #6A6AB9B91717",
"x  c #6C88BD8A1486",
"c  c #6B6BB2B21818",
"v  c #67528CDF3CB0",
"b  c #7C3AB9B33077",
"n  c #6A6AC6C60000",
"m  c #6D6DC4C40303",
"M  c #6B6BC1C10707",
"N  c #6C6CC1C10606",
"B  c #6F6FC7C70606",
"V  c #6F6FC7C70707",
"C  c #6B6BC8C80000",
"Z  c #6D6DC8C80000",
"A  c #6F6FC9C90202",
"S  c #6B6BC3C30909",
"D  c #6E6EC2C20B0B",
"F  c #6E6EC6C60808",
"G  c #6969C0C00F0F",
"H  c #6FF6C9F502F6",
"J  c #7070C9C90404",
"K  c #7070CACA0404",
"L  c #70FCCAFB04FC",
"P  c #717DCAAA0747",
"I  c #7272CBCB0707",
"U  c #725ECAD20806",
"Y  c #72F9CAF807F9",
"T  c #7272CBCB0808",
"R  c #7373CBCB0808",
"E  c #7300CAFF0901",
"W  c #7272CBCB0909",
"Q  c #7373CBCB0909",
"!  c #7373CACA0B0B",
"~  c #73FCCBFB09FC",
"^  c #7575CBCB0B0B",
"/  c #7575CBCB0E0E",
"(  c #7676CBCB0F0F",
")  c #7575CCCC0C0C",
"_  c #7575CCCC0D0D",
"`  c #7777CCCC1111",
"'  c #7C7CCECE1818",
"]  c #7C7CA6A64646",
"[  c #8383CFCF2525",
"{  c #8383CFCF2929",
"}  c #8787D0D02C2C",
"|  c #88FCD2FB2EFC",
" . c #8787CCCC3131",
".. c #87CCCE1833CD",
"X. c #8787C8C83F3F",
"o. c #8B8BD0D03535",
"O. c #8C8CD0D03636",
"+. c #8D8DD4D43737",
"@. c #8F8FD3D33E3E",
"#. c #842CBBA441D3",
"$. c #896ABB725008",
"%. c #86DE9BBF6BFC",
"&. c #818183837E7E",
"*. c #89D8C4CD41C9",
"=. c #8A8ACBCB4141",
"-. c #92FCD6FB40FB",
";. c #9797D6D64B4B",
":. c #9A9AD9D94F4F",
">. c #97F8C89B5D6C",
",. c #9A9AD7D75151",
"<. c #9A7DD1EA5562",
"1. c #9E9EDBDB5555",
"2. c #9EA1D41D5C79",
"3. c #838385858383",
"4. c #84C986BC81DB",
"5. c #8490872C810E",
"6. c #868688888686",
"7. c #88888A8A8585",
"8. c #8B8B8C8C8989",
"9. c #8D8D8E8E8B8B",
"0. c #8E8E90908C8C",
"q. c #939394949191",
"w. c #959597979292",
"e. c #969698989393",
"r. c #99999B9B9797",
"t. c #9F9FA0A09C9C",
"y. c #A0A0A2A29E9E",
"u. c #A3A3A4A4A0A0",
"i. c #A5A5A6A6A3A3",
"p. c #A9A9AAAAA6A6",
"a. c #ADADAFAFAAAA",
"s. c #AFAFB0B0ACAC",
"d. c #B0B0B1B1AEAE",
"f. c #B3B3B4B4B1B1",
"g. c #B9B9BBBBB6B6",
"h. c #BDBDBDBDBBBB",
"j. c #AED4D1328046",
"k. c #B17ED06988BB",
"l. c #B1C1C9CB931F",
"z. c #B6ADCF109596",
"x. c #B73BCB379CB1",
"c. c #B820D08298AE",
"v. c #BFF5E6F590F5",
"b. c #B672C71DA2CB",
"n. c #BFBFC3C3BDBD",
"m. c #C1C1E7E79494",
"M. c #C4C4E8E89797",
"N. c #C1C1C4C4BDBD",
"B. c #CB7AD74DBD23",
"V. c #CACAE9E9A7A7",
"C. c #CECEEAEAADAD",
"Z. c #D0D0EDEDADAD",
"A. c #C2C2C3C3C0C0",
"S. c #C6C6C8C8C2C2",
"D. c #C9C9CACAC6C6",
"F. c #CACACBCBCBCB",
"G. c #CCCCCDCDCACA",
"H. c #CECECECECDCD",
"J. c #CEBED434C620",
"K. c #CDCDD1D1C9C9",
"L. c #D253D77FC96B",
"P. c #D0D0D0D0CECE",
"I. c #D5D5D6D6D6D6",
"U. c #D6D6D8D8D1D1",
"Y. c #D7D7DBDBD5D5",
"T. c #DBDBDEDED7D7",
"R. c #D8D8D8D8D8D8",
"E. c #DEDEDFDFDBDB",
"W. c #DCDCF1F1C3C3",
"Q. c #DEDEE0E0DCDC",
"!. c #E1E1E1E1DFDF",
"~. c #E5E5F3F3D5D5",
"^. c #EBEBF7F7DEDE",
"/. c #E2E2E2E2E0E0",
"(. c #E4E4E5E5E2E2",
"). c #E600E823E3EF",
"_. c #E7E7E7E7E6E6",
"`. c #E7E7E8E8E5E5",
"'. c #E99DED04E48C",
"]. c #EBEBEBEBE8E8",
"[. c #ECECEDEDEBEB",
"{. c #EEEEEEEEECEC",
"}. c #EFFEEFFEEE05",
"|. c #EFF0F8F0E5EE",
" X c #EFF4F0BBEDEA",
".X c #EFEFF0F0EEEE",
"XX c #F15AF402ED65",
"oX c #F0F0F0F0EEEE",
"OX c #F3F3FAFAEBEB",
"+X c #F5F5FAFAEDED",
"@X c #F29FF342F0AE",
"#X c #F3F3F3F3F1F1",
"$X c #F54EF7D7F21B",
"%X c #F510F510F416",
"&X c #F4F4F5F5F3F3",
"*X c #F582F638F38F",
"=X c #F5F5F5F5F4F4",
"-X c gray97",
";X c #F6E9F8DDF3AB",
":X c #F789F98DF444",
">X c #F86DF91DF698",
",X c #F8F8F8F8F7F7",
"<X c #F9F9FCFCF4F4",
"1X c #F9F9FCFCF6F6",
"2X c #FBFBFBFBFAFA",
"3X c #FBFBFDFDF8F8",
"4X c #FCFCFCFCFBFB",
"5X c gray100",
"6X c None",
/* pixels */
"6X6X6X6X6X6X6X6X6X6X6X6X6X6X6X6X6X6X6X6X6X6X6X6X6X6X6X6X6X6X6X6X",
"6X6X6X6X6X6X6X6X6X6X6X6X6X6X6X6X6X6X6X6X6X6X6X6X6X6X6X6X6X6X6X6X",
"6X6X6X6X7.7.7.7.7.7.7.6.7.7.7.7.7.7.7.7.7.7.7.7.7.7.7.7.7.6X6X6X",
"6X6X6X6X7.5X5X5X5X5X5X5X5X5X5X5X5X5X5X5X5X5X5X5X5X5X5X5X7.6X6X6X",
"6X6X6X6X7.5XoXoX#XoXD.i.6.% &.r.A.oXoXoXoXoXoXoXoXoXoXoX7.6X6X6X",
"6X6X6X6X7.5XoXoX(.r.9.f.N.K.n.a.* 8.!..XoXoXoXoXoXoXoXoX7.6X6X6X",
"6X6X6X6X7.5XoX(.7.d.U.!.[.&X{._.Y.y.$ !.oX.X.XoX{.oXoXoX7.6X6X6X",
"6X6X6X6X7.5X{.u.a.T.#X2X5X2X5X=X{./.t.6..X[.[.[.{.{.{.oX7.6X6X6X",
"6X6X6X6X7.5XG.w.U.oX5X5X2X5X2X2X5X{.E.% h.{.{.{.{.oX{.oX7.6X6X6X",
"6X6X6X6X7.5Xs.g.(.2X2X5X5X2X5X2X2X=X].a.q.{.#X{.oXoXoXoX7.6X6X6X",
"6X6X6X6X7.5Xr.S.[.2X5X5X5X5X5X2X2X=X{.F.% #X{.#XoXoXoXoX7.6X6X6X",
"6X6X6X6X7.5X7.K.#X2X2X5X5X5X2X2X2X2X#XE.O #X#X#X#X#X#XoX7.6X6X6X",
"6X6X6X6X7.5Xr.S.[.4X2X5X5X2X2X2X2X2X{.G.% #X#X#X#X#X#XoX7.6X6X6X",
"6X6X6X6X7.5Xd.g.`.2X4X4X2X2X2X2X=X=X=Xf.q.#X#X#X#X#X#XoX7.6X6X6X",
"6X6X6X6X7.5XP.e.U.=X2X4X2X5X2X2X=X#X#X% A.#X=X#X#X#X=XoX7.6X6X6X",
"6X6X6X6X7.5X=Xi.d./.#X,X2X=X2X&X=X2Xp.6.=X=X=X=X=X=X=XoX7.6X6X6X",
"6X6X6X6X6.5X[.h.6.s.E.{.=X=X=X#X{.a.# _.=X5X&X&X=X=X&X[.7.6X6X6X",
"6X6X6X6X6.3.O o & r.0.g.G.Q.H.h.&.9.].=X=X=X#X&XoX{.,X[.6.6X6X6X",
"6X6X6X6X+ # q.o s.{.H.i.8.% 3.r.F.>X=X5X&XL.z.k.j.k.c.J.4.6X6X6X",
"6X6X6XO @ q.O X R.=X2X=X5X=X2X=X=X=X4X(.x.2.} ' _ ' [ <.%.6X6X6X",
"6X6XO @ w.O . F.&X=X2X2X2X=X5X2X2X2X&Xl.O._ L U L A -.1.O.] 6X6X",
"6X6XO 6.o o I.#X2X2X=X2X2X2X2X=X-X2XB...^ U R ~ A | OXm.C  .6X6X",
"6X6X6X.   Q.4X4X5X2X2X5X2X2X3X4X2X;X>._ U ~ R U L M.1Xn U _ c 6X",
"6X6X6X6X* 5X,X4X,X2X2X2X2X2X5X4X2X&X*.R U U U A O.OX:.L U I 9 6X",
"6X6X6X6X7.5X4X4X4X4X4X4X4X4X4X4X4X'.b U R K A R Z.W.` U U U 7 6X",
"6X6X6X6X7.5X4X4X4X4X4X4X4X4X4X4X4XXX#.m { m.;.@.3X,.B L B F 4 6X",
"6X6X6X6X7.5X4X4X4X4X4X4X4X4X4X4X4X>X$.0 n C.<X^.V.D M D S u < 6X",
"6X6X6X6X7.5XoXoXoXoXoXoXoXoXoXoX.X.Xb.8 s 6 ~.|.=.q u u G 7 6X6X",
"6X6X6X6X7.7.7.7.7.7.7.7.7.7.7.7.6.7.5.v y s x *.0 s l l r ; 6X6X",
"6X6X6X6X6X6X6X6X6X6X6X6X6X6X6X6X6X6X6X6X; f g h z j t 3 = 6X6X6X",
"6X6X6X6X6X6X6X6X6X6X6X6X6X6X6X6X6X6X6X6X6X6X> 2 1 , : 6X6X6X6X6X",
"6X6X6X6X6X6X6X6X6X6X6X6X6X6X6X6X6X6X6X6X6X6X6X6X6X6X6X6X6X6X6X6X"
};
