/* XPM */
static char *torus_trooper_pure[] = {
/* columns rows colors chars-per-pixel */
"32 32 195 2 ",
"   c #020202020202",
".  c gray3",
"X  c #111111111111",
"o  c #156515651565",
"O  c #161616161616",
"+  c #191919191919",
"@  c #226624D21F7A",
"#  c gray13",
"$  c #272727272727",
"%  c #2A2A2A2A2A2A",
"&  c gray18",
"*  c #352635D2348C",
"=  c gray21",
"-  c gray23",
";  c #3D3E3F323B0A",
":  c #3C3C3C3C3C3C",
">  c #46B85762346B",
",  c #502774DC26C8",
"<  c #414141414141",
"1  c #444444444444",
"2  c #48634985472F",
"3  c #498F4CF54566",
"4  c #4A854D0F4753",
"5  c #493A493A493A",
"6  c #4B4B4B4B4B4B",
"7  c #4B0F4DB7480C",
"8  c #4B984D94494F",
"9  c #4C4C4C4C4C4C",
"0  c #510D5C454369",
"q  c #515151515151",
"w  c #585858585858",
"e  c gray37",
"r  c #66B07E2A487F",
"t  c #6BF07FEC5267",
"y  c #606060606060",
"u  c gray40",
"i  c #6A6A6A6A6A6A",
"p  c #6CDD6D7F6BE6",
"a  c #6C6C6C6C6C6C",
"s  c #6FAD7B806209",
"d  c #727272727272",
"f  c #767676767676",
"g  c #783C78E5773E",
"h  c gray47",
"j  c #7B057BEB79D3",
"k  c #7A0B7A0B7A0B",
"l  c #7CF87DAD7BFA",
"z  c gray49",
"x  c #7D687E187C8D",
"c  c #7E7E7E7E7E7E",
"v  c #4B4B88880303",
"b  c #4D4D8A8A0404",
"n  c #4E4E8C8C0404",
"m  c #50508E8E0606",
"M  c #525294940707",
"N  c #58589E9E0505",
"B  c #575798980D0D",
"V  c #585898980F0F",
"C  c #5474867D1B60",
"Z  c #5A39952E132B",
"A  c #593790AE171C",
"S  c #5D5DA7A70707",
"D  c #5F5FABAB0707",
"F  c #5F0EAA280A13",
"G  c #5B3CB73B003C",
"H  c #6363B7B70404",
"J  c #63D1BAD001D2",
"K  c #6565BFBF0000",
"L  c #6868BBBB0707",
"P  c #6262B1B10909",
"I  c #6363B1B10F0F",
"U  c #6565B4B40D0D",
"Y  c #6868BCBC0808",
"T  c #6868BCBC0909",
"R  c #6868BDBD0B0B",
"E  c #6A44BE430A44",
"W  c #6868BBBB0E0E",
"Q  c #6868BABA0F0F",
"!  c #6366ABF11304",
"~  c #655DA2D519C5",
"^  c #6667A4B41ACF",
"/  c #6565B2B21111",
"(  c #6565B5B51010",
")  c #6767B7B71515",
"_  c #6969BCBC1010",
"`  c #6969BCBC1212",
"'  c #6A6AB9B91717",
"]  c #6CC1BDC014C1",
"[  c #68899FB72605",
"{  c #6188922B28AD",
"}  c #6E329ED433F8",
"|  c #6A97A58D22C8",
" . c #6A6AC6C60000",
".. c #6D6DC4C40303",
"X. c #6B6BC1C10707",
"o. c #6C6CC1C10606",
"O. c #6F6FC7C70606",
"+. c #6F6FC7C70707",
"@. c #6B6BC8C80000",
"#. c #6D6DC8C80000",
"$. c #6F66C9A90214",
"%. c #6B6BC3C30909",
"&. c #6E6EC2C20B0B",
"*. c #6E6EC6C60808",
"=. c #6969C0C00F0F",
"-. c #7070C9C90404",
";. c #705ECA8A0428",
":. c #7158CA750735",
">. c #7272CBCB0707",
",. c #7273CAB20803",
"<. c #7272CBCB0808",
"1. c #7373CBCB0808",
"2. c #734BCB4A094C",
"3. c #7272CBCB0909",
"4. c #7373CBCB0909",
"5. c #7373CACA0B0B",
"6. c #7575CBCB0B0B",
"7. c #7575CBCB0E0E",
"8. c #7676CBCB0F0F",
"9. c #7575CCCC0C0C",
"0. c #7575CCCC0D0D",
"q. c #7777CCCC1111",
"w. c #7C7CCECE1818",
"e. c #789B9B6E5014",
"r. c #7EB4814C7B90",
"t. c #8383CFCF2525",
"y. c #8383CFCF2929",
"u. c #8787D0D02C2C",
"i. c #8900D2FF2F01",
"p. c #85E0C93E31E8",
"a. c #87E8CE3433F0",
"s. c #8787C8C83F3F",
"d. c #8B8BD0D03535",
"f. c #8C8CD0D03636",
"g. c #8D8DD4D43737",
"h. c #8F8FD3D33E3E",
"j. c #8FBCA3B875A5",
"k. c #8A8ACBCB4141",
"l. c #929DD69D409E",
"z. c #9797D6D64B4B",
"x. c #9A9AD9D94F4F",
"c. c #953ACCA85030",
"v. c #9916CE9256F6",
"b. c #9A9AD7D75151",
"n. c #9E9EDBDB5555",
"m. c gray51",
"M. c gray53",
"N. c #8B8B8B8B8B8B",
"B. c #8D8D8D8D8D8D",
"V. c #939393939393",
"C. c #989898989898",
"Z. c #9D9D9D9D9D9D",
"A. c #A2A2A2A2A2A2",
"S. c gray65",
"D. c gray66",
"F. c #AFAFAFAFAFAF",
"G. c #B6B6B6B6B6B6",
"H. c gray72",
"J. c #BAE9BD15B8E4",
"K. c #B0E0D33E8286",
"L. c #B42BD3178BAD",
"P. c #B634CE3E9804",
"I. c #B820D0829766",
"U. c #B820D08298AE",
"Y. c #BF4BE64B904B",
"T. c #BFC8C347BBA0",
"R. c #C1C1E7E79494",
"E. c #C4C4E8E89797",
"W. c #CACAE9E9A7A7",
"Q. c #CECEEAEAADAD",
"!. c #D0D0EDEDADAD",
"~. c #C0C0C0C0C0C0",
"^. c gray78",
"/. c #C921C921C921",
"(. c #CACACACACACA",
"). c #CECECECECECE",
"_. c #D0D0D0D0D0D0",
"`. c gray83",
"'. c #DAECE018D373",
"]. c #DADADADADADA",
"[. c #DDDDDDDDDDDD",
"{. c #DCDCF1F1C3C3",
"}. c #DAECE062D3BD",
"|. c #E5E5F3F3D5D5",
" X c #EBEBF7F7DEDE",
".X c #EF8AF88AE58A",
"XX c #F044F178EF21",
"oX c #F3F3FAFAEBEB",
"OX c #F5F5FAFAEDED",
"+X c #F9F9FCFCF4F4",
"@X c #F9F9FCFCF6F6",
"#X c #F8F8F8F8F8F8",
"$X c #FBFBFDFDF8F8",
"%X c gray100",
"&X c None",
/* pixels */
"&X&X&X&X&X&X&X&X&X&X&X&X  X # & 1 w a h h c f f i w - $ + . &X&X",
"&X&X&X&X&X&X&X&X  # 1 d N.S.H.`.].`.).c G.G.c c ).`.`.`.G.C.d : ",
"&X&X&X&X&X  & a Z.F.~.(.G.V.y 1 : : : < < < < : - : : 6 h D.^.H.",
"&X&X&XX y F.c F.D.f 6 = : < 1 6 9 6 6 6 6 6 9 6 9 9 9 6 1 : = q ",
"&X$ N.).H.C.d < - < 6 6 6 6 6 6 6 6 6 6 6 6 6 6 6 6 6 6 9 6 9 6 ",
"V.[.A.d w < < 6 6 6 6 6 6 6 6 6 6 6 6 6 6 6 6 6 6 6 6 6 9 6 6 6 ",
"S.e 6 < 6 6 9 9 6 6 6 6 6 6 6 6 6 6 6 6 6 6 6 6 6 6 6 6 6 6 6 6 ",
"1 6 6 6 6 6 6 6 6 6 6 6 6 6 6 6 6 6 6 6 6 6 6 6 6 6 6 6 6 6 6 6 ",
"6 6 6 6 6 6 6 6 6 6 6 6 6 6 6 6 6 6 6 6 6 6 6 6 6 6 6 6 6 6 6 6 ",
"6 6 6 6 6 6 6 6 6 6 6 6 6 6 6 6 6 6 6 6 6 6 6 6 6 6 6 6 6 6 6 6 ",
"6 6 6 6 6 6 6 6 6 6 6 6 6 6 6 6 6 6 6 6 6 6 6 6 6 6 6 6 6 6 6 6 ",
"6 6 6 6 6 6 6 6 6 6 6 6 6 6 6 6 6 6 6 6 6 6 6 6 6 6 6 6 6 6 6 6 ",
"6 6 6 6 6 6 6 6 6 6 6 6 6 6 6 6 6 6 6 6 6 6 6 6 6 6 6 6 6 6 6 6 ",
"6 6 6 6 6 6 6 6 6 6 6 6 6 6 6 6 6 6 6 6 6 6 6 6 6 6 6 6 6 6 6 6 ",
"6 6 6 6 6 6 6 6 6 6 6 6 6 6 6 6 6 6 6 6 6 6 6 6 6 6 6 6 6 6 6 6 ",
"6 6 6 6 6 6 6 6 6 6 6 6 6 6 6 6 6 6 6 6 6 6 6 6 6 6 6 6 6 6 6 6 ",
"6 6 6 6 6 6 6 6 6 6 6 6 6 6 6 6 6 9 9 9 6 6 6 6 6 6 6 6 6 6 6 6 ",
"6 6 6 6 6 6 6 6 6 6 6 6 6 6 6 6 y h c h z h p z j g c h p 6 6 6 ",
"6 6 6 6 6 6 6 6 6 6 6 6 6 6 6 6 A.%X%X%X#X}.I.L.K.L.U.}./.6 6 6 ",
"6 6 6 6 6 6 6 6 6 6 6 6 6 6 6 6 6 9 f XXj.v.u.w.0.w.t.c.e.6 6 6 ",
"6 6 6 6 6 6 6 6 6 6 6 6 6 6 6 6 6 6 h U.f.0.O.1.1.@.l.n.p.r 5 5 ",
"6 6 6 6 6 6 6 6 6 6 6 6 6 6 6 6 6 6 s a.5.1.1.1.O.i.OXY.K p.0 9 ",
"6 6 6 6 6 6 6 6 6 6 6 6 6 6 6 6 6 8 } 7.1.1.1.1.@.E.@X .1.8.{ : ",
"6 6 6 6 6 6 6 6 6 6 6 6 6 6 6 6 6 4 | 1.1.1.1...g.OXx...1.1.Z r.",
"6 6 6 6 6 6 6 6 6 6 6 6 6 6 6 6 6 4 ~ :.<.;.O.1.!.{.q.1.1.1.^ T.",
"6 6 6 6 6 6 6 6 6 6 6 6 6 6 6 6 6 4 A o.y.R.z.h.$Xx...1.*.*.| # ",
"6 6 6 6 6 6 6 6 6 6 6 6 6 6 6 6 6 4 C T  .Q.+X XW.&.%.o.%.T N &X",
"6 6 6 6 6 6 6 6 6 6 6 6 6 6 6 6 6 6 > F T G |..Xk.J T T =.F &X&X",
"6 9 6 6 6 9 9 6 9 6 6 9 9 9 6 6 1 - = , U Q ] s.H W ` ` P b &X&X",
": < < 1 6 1 1 6 1 6 1 1 < : : q g F.(.J.e.! / ( ' ) I S v &X&X&X",
"].c A.m.u e y i i i M.Z.G.`.[.).G.C.i < o &Xm V B M n &X&X&X&X&X",
"w h B.S.H.~.~.H.H.G.A.B.c i < # o . &X&X&X&X&X&X&X&X&X&X&X&X&X&X"
};
