/* XPM */
static char *youtranslate[] = {
/* columns rows colors chars-per-pixel */
"32 32 190 2 ",
"   c #018F01500035",
".  c #0BAF05050101",
"X  c gray4",
"o  c #101007070101",
"O  c #1B1B0C0C0202",
"+  c #17170E4E098A",
"@  c #1B1B1B1B1B1B",
"#  c #2CA1130A033B",
"$  c #2DBB184D0308",
"%  c #3C3C19190505",
"&  c #29291A1A1111",
"*  c #393928281D1D",
"=  c #2A2A2A2A2929",
"-  c #3C3C2B2B2121",
";  c gray23",
":  c #42FA1BF70505",
">  c #4B4B1F1F0606",
",  c #43431F1F0A0A",
"<  c #4BA120200606",
"1  c #515122220606",
"2  c #4793364505BA",
"3  c #414123231111",
"4  c #55423F8A130F",
"5  c #66662B2B0707",
"6  c #616128280808",
"7  c #72722F2F0909",
"8  c #474738382E2E",
"9  c #4D4D38382C2C",
"0  c #56563C3C2D2D",
"q  c #5C5C3F3F2D2D",
"w  c #4B4B3C3C3333",
"e  c #37D7609604B3",
"r  c #41BD715C0B29",
"t  c #4D207B8710C2",
"y  c #65654C4C3D3D",
"u  c #6D6D50503E3E",
"i  c #727251513E3E",
"p  c #4B4B49494949",
"a  c #5D5D51514A4A",
"s  c #5A5A5A5A5A5A",
"d  c #61614F4F4444",
"f  c #79795D5D4C4C",
"g  c #757566665C5C",
"h  c #6A0369366868",
"j  c #70706B6B6868",
"k  c #7A7A79797979",
"l  c #8E433C6A0AB8",
"z  c #93B83DAB0B0B",
"x  c #907640CB0AE3",
"c  c #999940400B0B",
"v  c #A65345220C0A",
"b  c #BDBD54541717",
"n  c #997E7E090C29",
"m  c #BFED6C600E80",
"M  c #B7B75C5C2727",
"N  c #C54552120F0F",
"B  c #CACA54540F0F",
"V  c #DBDB5B5B1010",
"C  c #CD9571B01B42",
"Z  c #E379606F10B6",
"A  c #ECC963BF11E4",
"S  c #F395658E1240",
"D  c #F5A66AE216FA",
"F  c #FEF56A9C1362",
"G  c #F8616D6A1971",
"H  c #FCAB6E3E1A79",
"J  c #FEFE71711E1E",
"K  c #DA35757B2A7F",
"L  c #CFCF6E6E3434",
"P  c #DDDD74743636",
"I  c #FEFE77772727",
"U  c #FEFE78AB2A91",
"Y  c #909071715E5E",
"T  c #989879796767",
"R  c #909078786A6A",
"E  c #86867F7F7A7A",
"W  c #D6D67B7B4646",
"Q  c #4BD686CC0489",
"!  c #4CF78A8A03AE",
"~  c #50C08F0D04FC",
"^  c #525294940707",
"/  c #58589E9E0505",
"(  c #575798980D0D",
")  c #5DDEA7A70687",
"_  c #5F5FABAB0707",
"`  c #5BFFB7690013",
"'  c #61E0AAA50931",
"]  c #7C93A0690846",
"[  c #6363B7B70404",
"{  c #64A1BD0D0088",
"}  c #6868BBBB0707",
"|  c #63B9B2B20C62",
" . c #68AEBC9D0B34",
".. c #6611AB1D1022",
"X. c #6610B55F1212",
"o. c #6A75BBF8134F",
"O. c #6D6DC57C052A",
"+. c #6E3BC9620134",
"@. c #6C6CC3830ACB",
"#. c #716ACA78057F",
"$. c #73A3CB88098A",
"%. c #7777CCCC1111",
"&. c #7C7CCECE1818",
"*. c #8A038FC30A9E",
"=. c #84A998010932",
"-. c #98ED9A5E13C2",
";. c #8A96A0D6087E",
":. c #B60A8BF52F4F",
">. c #BB458CD537B6",
",. c #BBD38D6338D2",
"<. c #FEFE81813737",
"1. c #FEFE83033A3A",
"2. c #8383CFCF2525",
"3. c #85B2CCF42B4D",
"4. c #8787D0D02C2C",
"5. c #88FFD2692E13",
"6. c #8ACFCA19305D",
"7. c #8787C8C83F3F",
"8. c #8C8CD2273636",
"9. c #8F8FD3D33E3E",
"0. c #B7C39A8B428F",
"q. c #B3E6AB334C7F",
"w. c #B0ACB4BD5236",
"e. c #A3A381816C6C",
"r. c #B8B893937E7E",
"t. c #CACA85855B5B",
"y. c #DA2F85DB5353",
"u. c #E2E280804646",
"i. c #FEFE89894444",
"p. c #FEFE8B8B4949",
"a. c #F2F28F8F5555",
"s. c #FE1794145623",
"d. c #FEFE99995E5E",
"f. c #D3D38C8C6363",
"g. c #CDCD92926F6F",
"h. c #EBEB96966565",
"j. c #FEFE9E27653D",
"k. c #FD27A5FB729D",
"l. c #8A8ACBCB4141",
"z. c #9AD5CD9A4E64",
"x. c #92FFD6694013",
"c. c #9797D6D64B4B",
"v. c #9A9AD9D94F4F",
"b. c #9EB9CF8B5533",
"n. c #9A9AD7D75151",
"m. c #9E9EDBDB5555",
"M. c gray53",
"N. c #898988888787",
"B. c #90908B8B8888",
"V. c #9B459A4499EF",
"C. c #C7C7A2A28C8C",
"Z. c #C8C8A2A28C8C",
"A. c #D9D9A7A78A8A",
"S. c #C3C3A8A89999",
"D. c #C8C8ACAC9C9C",
"F. c #D7D7AEAE9898",
"G. c #D7D7B2B29B9B",
"H. c #F6F6AEAE8282",
"J. c #FEFEB1B18383",
"K. c #F8F8B6B68F8F",
"L. c #FEFEB9B99090",
"P. c #C2C2B0B0A5A5",
"I. c #CDCDB7B7A9A9",
"U. c #D6D6BABAAAAA",
"Y. c #BFFEE6699012",
"T. c #C1C1E7E79494",
"R. c #C4C4E8E89797",
"E. c #D9D9C7C7BDBD",
"W. c #FDFDC3C3A0A0",
"Q. c #F6F6C8C8ACAC",
"!. c #FEFECBCBADAD",
"~. c #FEFED5BBBDA3",
"^. c #CACAE9E9A7A7",
"/. c #CECEEAEAADAD",
"(. c #D0D0EDEDADAD",
"). c #EBEBD9D9CECE",
"_. c #F1F1D6D6C6C6",
"`. c #FEFEDDA4C9F4",
"'. c #DCDCF1F1C3C3",
"]. c #F2F2E0E0D5D5",
"[. c #FEFEE7E7DADA",
"{. c #E5E5F3F3D5D5",
"}. c #EBEBF7F7DEDE",
"|. c #FEFEEDEDE3E3",
" X c #EFFEF869E511",
".X c #FEFEF0F0E7E7",
"XX c #F4F4FAFAECEC",
"oX c #F9F9FCFCF5F5",
"OX c #FBFBFDFDF8F8",
"+X c None",
/* pixels */
"+X+X+X+X+X+X+X+X+X    . & - 8 w w 8 - &       +X+X+X+X+X+X+X+X+X",
"+X+X+X+X+X+X+X+X    9 R P.E.).].].).E.P.R 9 .   +X+X+X+X+X+X+X+X",
"+X+X+X+X+X+X  + d S.|..X.X.X.X.X.X.X.X.X.X|.S.d +   +X+X+X+X+X+X",
"+X+X+X+X    & T _.[.[.[.[.[.[.[.[.[.[.[.[.[.[._.T &     +X+X+X+X",
"+X+X+X  . 3 A.`.`.`.`.`.`.`.`.`.`.`.`.`.`.`.`.`.`.A.- .   +X+X+X",
"+X+X+X  , t.~.~.~.~.~.~.~.~.~.`.~.~.~.~.~.`.~.~.~.~.t.<   +X+X+X",
"+X+X  # L F.I.I.U.Q.!.!.W.!.!.!.!.!.!.!.!.~.Q.U.I.I.F.L #   +X+X",
"+X  O z s.F.V.V.V.D.W.W.W.W.W.W.W.W.W.W.L.W.S.V.V.V.G.s.z O   +X",
"+X  5 A j.L.Z.B.N.N.Z.K.L.L.L.L.L.L.L.L.K.S.N.M.B.C.L.j.A 5   +X",
"  . N F j.J.H.r.k k E Z.J.J.J.J.J.J.J.J.C.e.k k C.k.J.j.H N .   ",
"  1 F F i.k.k.k.T h h j g.k.k.k.k.k.k.g.h h j e.h.k.k.i.H F 1   ",
". z F F I j.j.j.h.Y s s g f.j.j.j.j.y.g s s Y h.j.j.j.U F F z . ",
"# N F F F U s.s.s.a.f p p a y.s.s.y.a p p f a.s.s.s.I F F F N # ",
"% V F F F J 1.p.p.i.W y ; ; u u.u.u ; ; y W p.p.p.i.J F F F V % ",
"> A F F H F F I <.<.<.P 9 = = 0 q = = 9 P <.<.<.U F F F F F A > ",
"1 S F F F F F H J I U I M * @ @ @ @ - M U U U J H F F F F F A 1 ",
"> A F F F F F F F F H H F b + X X + b H F F F F F F F F F F A 1 ",
"> Z F F F F F F F F F F F F #     # F H F F H G D G G F F F A > ",
": V F F F F F F F F F F H F #     # F F S K 0.q.w.q.0.K S F V : ",
"# N F F F F F F F F F F F F #     # F A >.b.4.&.$.&.2.z.>.A N # ",
"o z F F F F F F F F F F F F #     # S :.8.$.#.#.$.+.9.m.8.:.z . ",
"  1 F F F F F F F F F F F F #     # C 6.$.$.$.$.+.5.XXY.+.6.4   ",
"  . N F F F F F F F F F F F #     $ -.$.$.$.$.$.#.R.oX+.#.%.t   ",
"+X  5 S F F F F F F F F F F #     $ ;.$.$.$.#.+.8.XXv.#.$.#.Q +X",
"+X  O z F F F F F F F F F F #     $ ] #.#.#.#.$.(.'.%.$.$.$.~ +X",
"+X+X  # V F F F F F F F F F #     $ =.O.2.T.c.9.OXv.O.O.O.O.' +X",
"+X+X+X  : B F F F F F F F F l 7 7 x *.} { (.oX}.^.@.@.O.@.} / +X",
"+X+X+X  . : V F F F F F F F v 1 1 v m '  .` {. Xl.{ } } @._ +X+X",
"+X+X+X+X    # z S F F F F A .     o Z *.| X.o.7.[  .o.o.| ! +X+X",
"+X+X+X+X+X+X  O 6 B F F F A :     : S S n ..X.X.o.X.| ) Q +X+X+X",
"+X+X+X+X+X+X+X+X    > z N V A N N A V N l 2 e r ( ^ ! +X+X+X+X+X",
"+X+X+X+X+X+X+X+X+X      # % > > > : % # X     +X+X+X+X+X+X+X+X+X"
};
